<svg width="37" height="37" viewBox="0 0 37 37" fill="none" xmlns="http://www.w3.org/2000/svg">
<g clip-path="url(#clip0_823_4514)">
<path d="M0.0488281 14.0813H36.097V21.9668H0.0488281V14.0813Z" fill="#E6E7E8"/>
<path d="M30.4645 5.63257H5.68136C1.94868 5.63257 0.0488281 8.40659 0.0488281 11.8284V14.0814H36.097V11.8284C36.097 8.40659 34.1972 5.63257 30.4645 5.63257ZM0.0488281 24.2199C0.0488281 27.6417 1.94868 30.4157 5.68136 30.4157H30.4645C34.1972 30.4157 36.097 27.6417 36.097 24.2199V21.9669H0.0488281V24.2199Z" fill="#74ACDF"/>
<path fill-rule="evenodd" clip-rule="evenodd" d="M18.4517 15.7135C18.6263 15.4961 18.6443 15.2792 18.6488 15.05C18.6539 14.8557 18.6826 14.6602 18.7176 14.4653C18.7305 14.3927 18.7818 14.3206 18.8325 14.2654C18.8526 14.2482 18.8762 14.2356 18.9017 14.2284C18.9272 14.2212 18.9539 14.2196 18.98 14.2237C19.0076 14.231 19.0335 14.3065 19.0313 14.351C19.0273 14.4282 18.9913 14.5048 18.9862 14.5819C18.975 14.7447 18.975 14.9047 18.9744 15.0658C18.9721 15.2285 18.9733 15.3896 18.9733 15.571C19.0893 15.3299 19.1997 15.0979 19.3135 14.8675C19.3721 14.7393 19.4387 14.615 19.5129 14.4952C19.5416 14.4552 19.6154 14.4439 19.6672 14.4203C19.6869 14.4738 19.737 14.5329 19.7258 14.578C19.6588 14.8162 19.5776 15.0511 19.4982 15.286C19.4273 15.5012 19.3512 15.7124 19.2622 15.9625C19.4898 15.8352 19.5895 15.6634 19.6785 15.4747C19.7759 15.2674 19.8897 15.0652 20.0187 14.8765C20.0801 14.7881 20.1944 14.6782 20.3138 14.7796C20.3448 14.8055 20.2879 14.9768 20.2333 15.0506C20.106 15.2229 20.0288 15.4054 19.973 15.6132C19.9257 15.7907 19.8024 15.9489 19.7207 16.0993C19.7506 16.0757 19.8029 16.0317 19.8508 15.9867C20.0823 15.7794 20.3121 15.5693 20.5448 15.3626C20.6084 15.3057 20.6771 15.2528 20.752 15.2167C20.7875 15.1993 20.8568 15.2133 20.8883 15.2381C20.9137 15.2556 20.9171 15.3294 20.9002 15.3603C20.8532 15.4439 20.7975 15.5222 20.734 15.5941C20.4665 15.8943 20.1967 16.1911 19.9021 16.515C20.1843 16.4762 20.3623 16.3382 20.5329 16.1697C20.667 16.0374 20.823 15.923 20.9745 15.8076C21.0194 15.7731 21.074 15.7536 21.1305 15.7518C21.2066 15.7541 21.2815 15.7862 21.3547 15.8076C21.3142 15.8678 21.2894 15.9535 21.2325 15.9867C21.0107 16.1117 20.8206 16.2861 20.6771 16.4964C20.5921 16.6226 20.4327 16.6947 20.2823 16.8113C20.6084 16.6947 20.9097 16.5871 21.2122 16.4835C21.3294 16.4435 21.4505 16.4103 21.5716 16.39C21.6082 16.3838 21.678 16.4198 21.6904 16.4525C21.7022 16.4874 21.6797 16.5589 21.6493 16.5832C21.5693 16.6446 21.4803 16.6958 21.3879 16.7381C21.0382 16.9082 20.6873 17.0726 20.3099 17.2517C20.6146 17.343 20.8534 17.2343 21.1018 17.1419C21.2933 17.0715 21.5034 17.0456 21.7079 17.0264C21.7681 17.0208 21.8397 17.1036 21.9039 17.1464C21.8459 17.1926 21.7901 17.2748 21.7253 17.2805C21.4595 17.3092 21.233 17.4157 21.0015 17.5435C20.8489 17.628 20.6506 17.6314 20.4715 17.6731C20.894 17.6967 21.3164 17.7204 21.7394 17.7463C21.7445 17.7463 21.7507 17.7452 21.7563 17.748L21.9861 17.8792C21.9129 17.9243 21.8402 18.0054 21.7625 18.0105C21.3801 18.0459 20.9937 18.0617 20.6107 18.0854C20.5521 18.0876 20.4941 18.0927 20.3983 18.1006C20.672 18.3022 20.9424 18.2859 21.2212 18.2943C21.4212 18.2977 21.6245 18.3676 21.8194 18.4306C21.8695 18.4458 21.8954 18.5393 21.9309 18.5968C21.8684 18.6193 21.8047 18.6582 21.7434 18.6582C21.6606 18.6582 21.5772 18.6233 21.4933 18.6092C21.4217 18.5968 21.3457 18.5737 21.2775 18.5867C20.9852 18.6402 20.6974 18.6818 20.4175 18.5168C20.4163 18.5309 20.4124 18.5455 20.409 18.5596C20.7261 18.7089 21.041 18.8581 21.3558 19.0091C21.4471 19.053 21.5417 19.0981 21.6217 19.1589C21.6617 19.1899 21.6741 19.2597 21.6977 19.3127C21.6453 19.3341 21.5913 19.3803 21.5434 19.3741C21.4336 19.3589 21.3243 19.3206 21.2178 19.284C20.8782 19.1679 20.5391 19.0468 20.1854 18.9207C20.2755 19.142 20.4467 19.2519 20.787 19.3848C20.9469 19.4462 21.095 19.5498 21.2302 19.6552C21.317 19.7233 21.4454 19.8388 21.3491 19.9514C21.2471 20.0725 21.1328 19.9373 21.0466 19.8703C20.8866 19.747 20.7103 19.6794 20.5155 19.6259C20.329 19.5735 20.164 19.4445 19.9978 19.3504C20.2164 19.5926 20.4467 19.8467 20.6743 20.1012C20.7453 20.1824 20.8213 20.2618 20.8737 20.3541C20.9024 20.4015 20.885 20.4764 20.8866 20.5378C20.8241 20.5333 20.743 20.5507 20.7002 20.5181C20.5307 20.3874 20.3718 20.2415 20.2102 20.099C20.013 19.9255 19.8193 19.7492 19.6007 19.5532C19.6447 19.872 19.8193 20.0658 20.0254 20.2404C20.1978 20.3874 20.3313 20.5626 20.373 20.7884C20.3859 20.8549 20.3454 20.9298 20.3279 21.0008C20.2665 20.9642 20.1769 20.9439 20.1465 20.8892C20.0166 20.6633 19.8357 20.4708 19.6182 20.3271C19.496 20.2443 19.4239 20.086 19.3169 19.9464C19.367 20.0962 19.412 20.2336 19.4599 20.371C19.5371 20.5896 19.6159 20.8064 19.692 21.0255C19.7152 21.0832 19.7271 21.1448 19.7269 21.2069C19.723 21.2548 19.6931 21.3269 19.6593 21.3376C19.6188 21.3494 19.5489 21.3184 19.5191 21.2801C19.4622 21.2114 19.4228 21.1275 19.3844 21.0481C19.2143 20.6977 19.0471 20.3446 18.8657 19.9621C18.7835 20.2207 18.8454 20.4274 18.9282 20.6358C18.9958 20.8081 19.0583 20.9844 19.0944 21.1658C19.1147 21.2644 19.082 21.3781 19.0589 21.4807C19.0504 21.5116 18.9919 21.5494 18.9569 21.5482C18.9231 21.5482 18.8618 21.5043 18.8595 21.4767C18.8336 21.1219 18.6635 20.8245 18.5159 20.5135C18.4624 20.4031 18.4804 20.2612 18.441 20.1328C18.4247 20.4741 18.4072 20.8138 18.3897 21.1551C18.3852 21.257 18.3875 21.3612 18.3588 21.4587C18.3402 21.5223 18.276 21.5775 18.2315 21.6344C18.1892 21.5758 18.1132 21.5195 18.1081 21.457C18.0749 21.0796 18.0569 20.7011 18.036 20.3249C18.0321 20.2421 18.036 20.1587 18.0129 20.072C17.889 20.2162 17.8218 20.4006 17.8237 20.5907C17.8237 20.7755 17.84 20.9653 17.8147 21.1478C17.7983 21.2717 17.733 21.3928 17.6699 21.5043C17.6474 21.5443 17.568 21.5516 17.5133 21.5725C17.4947 21.524 17.47 21.4767 17.4576 21.4255C17.4514 21.3945 17.4649 21.359 17.4728 21.3258C17.5302 21.105 17.5578 20.8904 17.4964 20.6577C17.4604 20.5192 17.4908 20.3626 17.4908 20.2021C17.3635 20.4668 17.2368 20.7298 17.1095 20.9906C17.0622 21.0881 17.016 21.1878 16.9546 21.2728C16.9236 21.3128 16.8521 21.3229 16.8002 21.3455C16.7783 21.2931 16.7355 21.2362 16.7411 21.1866C16.758 21.0762 16.7952 20.9681 16.8329 20.8616C16.9512 20.5214 17.0723 20.1829 17.2052 19.8044C16.9456 19.9447 16.8543 20.1559 16.7569 20.3677C16.6725 20.5515 16.569 20.7259 16.4482 20.8881C16.3846 20.976 16.2702 21.0841 16.1519 20.9844C16.121 20.9608 16.179 20.7873 16.2347 20.7107C16.3603 20.5383 16.4369 20.357 16.4921 20.1486C16.5395 19.9706 16.6651 19.814 16.7541 19.6523C16.4967 19.8827 16.2336 20.1238 15.9655 20.3609C15.8903 20.4291 15.8084 20.4895 15.7211 20.5411C15.6867 20.5609 15.6135 20.5547 15.5847 20.5299C15.56 20.5051 15.5515 20.4302 15.5695 20.3964C15.6107 20.3153 15.667 20.2432 15.7256 20.175C15.9931 19.8765 16.2635 19.5808 16.5564 19.2558C16.2443 19.2947 16.0714 19.4732 15.8917 19.6557C15.759 19.7845 15.6113 19.8968 15.4518 19.9903C15.3572 20.0506 15.2045 20.1215 15.133 19.9948C15.0513 19.8478 15.2254 19.7977 15.3183 19.7453C15.4969 19.6371 15.6292 19.4946 15.7526 19.3273C15.8585 19.1843 16.0241 19.084 16.1677 18.9623L15.2496 19.2823C15.164 19.3133 15.0795 19.3549 14.9922 19.3634C14.9218 19.373 14.8469 19.3397 14.7748 19.3256C14.8114 19.2581 14.8334 19.1595 14.8897 19.1285C15.1769 18.9759 15.4772 18.8379 15.7723 18.6942L16.1283 18.5208C15.903 18.4357 15.7295 18.4644 15.4163 18.6013C15.2665 18.6652 15.1101 18.7126 14.95 18.7427C14.8606 18.757 14.7691 18.75 14.683 18.7224C14.634 18.7089 14.6007 18.6452 14.5608 18.6052C14.6007 18.5675 14.639 18.5005 14.6841 18.4965C14.9815 18.4616 15.244 18.3501 15.5036 18.1986C15.6354 18.1214 15.8185 18.1287 16.0184 18.0899C15.6326 18.0707 15.2862 18.0549 14.9415 18.0375C14.828 18.0347 14.7151 18.0213 14.6041 17.9975C14.5546 17.9857 14.5208 17.9198 14.4785 17.8798C14.5202 17.8409 14.5568 17.7767 14.6058 17.7637C14.7156 17.7373 14.8294 17.7316 14.9426 17.726C15.3026 17.7069 15.6602 17.6905 16.0663 17.6714C15.8027 17.4787 15.5526 17.4562 15.2913 17.4911C15.0703 17.5217 14.8456 17.4747 14.6554 17.3582C14.5985 17.3227 14.5731 17.2382 14.5343 17.1757C14.603 17.156 14.6802 17.1059 14.7393 17.1199C14.9801 17.1797 15.2304 17.1906 15.4755 17.1521C15.6749 17.1211 15.8912 17.1982 16.1024 17.2292C15.7954 17.0833 15.4805 16.9352 15.1691 16.782C15.0514 16.7276 14.9378 16.6645 14.8294 16.5933C14.7934 16.5685 14.7635 16.4902 14.7759 16.4525C14.7872 16.4187 14.8649 16.3821 14.9088 16.3894C15.0249 16.4074 15.1386 16.4418 15.2502 16.4807C15.5915 16.5973 15.93 16.7195 16.2832 16.8445C16.1959 16.6277 16.0224 16.5201 15.6833 16.3798C15.5008 16.3027 15.3431 16.1664 15.1803 16.0515C15.1419 16.0174 15.1148 15.9724 15.1026 15.9225C15.0919 15.8847 15.0958 15.8239 15.1195 15.7997C15.1432 15.776 15.2 15.7833 15.2417 15.7788C15.2479 15.7788 15.2541 15.7811 15.2581 15.7845C15.5797 16.1371 16.1334 16.0599 16.46 16.4181C16.4398 16.3883 16.4195 16.3567 16.3947 16.3303C16.1632 16.0746 15.9311 15.8183 15.7013 15.5609C15.6503 15.5083 15.6081 15.4478 15.5763 15.3817C15.5588 15.3367 15.5571 15.2561 15.5836 15.2308C15.6135 15.2038 15.6951 15.2049 15.7363 15.2274C15.81 15.2652 15.8759 15.322 15.939 15.3795C16.233 15.642 16.5259 15.9078 16.8476 16.1968C16.8188 15.918 16.6662 15.7552 16.5102 15.5845C16.3654 15.4257 16.2483 15.2409 16.1215 15.0624C16.1027 15.0339 16.0936 15.0001 16.0956 14.9661C16.1052 14.899 16.1288 14.8337 16.1463 14.7667C16.2054 14.7988 16.2899 14.8179 16.3198 14.8675C16.46 15.1063 16.6285 15.3029 16.8656 15.4584C16.9816 15.5372 17.0458 15.696 17.1455 15.8335C17.1326 15.7822 17.1281 15.7422 17.1134 15.7051C17.0137 15.4212 16.9118 15.1418 16.8121 14.8568C16.7884 14.7943 16.7529 14.7284 16.7529 14.6647C16.7518 14.5825 16.7805 14.5008 16.7957 14.418C16.8645 14.4631 16.963 14.4941 16.9957 14.5594C17.1771 14.9041 17.3398 15.2601 17.5094 15.6116C17.537 15.6662 17.5646 15.7191 17.6018 15.7941C17.6896 15.513 17.5995 15.2888 17.5071 15.0568C17.444 14.8889 17.3972 14.7154 17.3674 14.5386C17.3522 14.4603 17.3753 14.369 17.4029 14.2896C17.4159 14.2552 17.4745 14.2186 17.5144 14.2147C17.5443 14.2136 17.6046 14.2626 17.6068 14.2907C17.6406 14.6309 17.7859 14.9255 17.9431 15.2229C18.0034 15.3367 17.9865 15.4933 18.0214 15.6301C18.045 15.2128 18.0709 14.7965 18.0952 14.3786C18.0963 14.3549 18.0912 14.3285 18.1008 14.3121C18.1414 14.2496 18.1836 14.1888 18.227 14.1296C18.272 14.1922 18.3543 14.2519 18.3582 14.3172C18.3931 14.7391 18.4106 15.1638 18.4342 15.589C18.4382 15.6189 18.4433 15.6459 18.4517 15.7135ZM15.3701 17.4303C15.5295 17.4444 15.6946 17.4444 15.8512 17.4838C15.9959 17.5193 16.13 17.6015 16.2736 17.6488C16.3434 17.6742 16.4246 17.6652 16.5 17.6725C16.2708 17.5615 16.0489 17.4568 15.8162 17.4033C15.6782 17.3717 15.5194 17.419 15.3701 17.4303C15.1477 17.3779 14.9252 17.3244 14.7033 17.2715C14.9004 17.4416 15.1325 17.4506 15.3701 17.4303ZM20.7436 19.4541C20.8973 19.5656 21.0545 19.6743 21.2038 19.7926C21.237 19.8174 21.2449 19.8776 21.264 19.9216C21.2877 19.8928 21.2984 19.854 21.2826 19.8326C21.1553 19.6304 20.9863 19.4867 20.7368 19.458C20.5211 19.3318 20.28 19.2417 20.1285 19.0215C20.0702 18.9447 20.0001 18.8778 19.9207 18.8232C19.866 18.7832 19.7951 18.7652 19.7309 18.737C19.8581 18.8993 20.0147 19.0097 20.1415 19.1482C20.2946 19.3248 20.5107 19.4346 20.7436 19.4541ZM15.7695 16.306C15.5322 16.2225 15.3284 16.0642 15.1888 15.8549C15.1386 16.0272 15.5256 16.3365 15.7746 16.3021C15.7971 16.3297 15.8196 16.3596 15.8467 16.3821C16.0094 16.5066 16.1767 16.6265 16.3378 16.7533C16.4206 16.8197 16.491 16.9031 16.5778 16.9656C16.6217 16.9977 16.6865 17.0011 16.7422 17.0152C16.6279 16.8806 16.4854 16.7904 16.3795 16.6705C16.2234 16.4833 16.0083 16.3548 15.7695 16.306ZM15.382 18.5337C15.6546 18.4233 15.939 18.4075 16.2291 18.4233C16.3175 18.4273 16.4088 18.4047 16.495 18.3811C16.5248 18.3726 16.5445 18.3276 16.5789 18.2859C16.2849 18.3022 16.0179 18.2977 15.7594 18.3411C15.6264 18.363 15.5104 18.4701 15.3842 18.5382L14.7652 18.6458L14.7737 18.688C14.9899 18.6976 15.2012 18.6835 15.382 18.5337ZM19.0792 19.4772C19.0426 19.4603 19.0059 19.4456 18.9688 19.4304C18.9564 19.4389 18.944 19.4484 18.9316 19.458C19.1535 19.9903 19.3737 20.5248 19.5945 21.0582C19.6064 21.0548 19.6171 21.0498 19.63 21.0464C19.4447 20.5203 19.2611 19.9954 19.0763 19.4721C19.1946 19.6343 19.3473 19.7819 19.4233 19.9633C19.5444 20.2505 19.7996 20.3654 20.0237 20.5265C19.8649 20.3406 19.6649 20.1818 19.5326 19.9807C19.3963 19.7768 19.3602 19.5076 19.1304 19.3161C19.1079 19.387 19.0944 19.4321 19.0792 19.476M17.6806 16.0684C17.5516 15.8149 17.4209 15.5597 17.2942 15.3035C17.1861 15.0855 17.083 14.8647 16.9771 14.6467C16.9639 14.6516 16.9511 14.6574 16.9388 14.6642C17.163 15.2015 17.3866 15.7411 17.6102 16.2796L17.6778 16.2655V16.0655L17.7854 16.2007C17.7854 15.9884 17.7893 15.7749 17.7842 15.562C17.782 15.4736 17.7842 15.3688 17.7403 15.3001C17.5708 15.0342 17.5043 14.7425 17.4773 14.4377C17.4773 14.4315 17.4609 14.4282 17.395 14.3904C17.4401 14.5954 17.4401 14.7779 17.5161 14.9193C17.7212 15.2883 17.715 15.6735 17.6806 16.0684ZM15.7408 20.504C15.761 20.4781 15.7774 20.4493 15.8022 20.4279C16.2038 20.0641 16.6082 19.7008 17.007 19.3341C17.0469 19.2969 17.0577 19.2254 17.083 19.1685C17.0278 19.1922 16.9591 19.1995 16.9213 19.2372C16.5518 19.6105 16.1846 19.986 15.8196 20.3637C15.7836 20.4009 15.7672 20.4561 15.7408 20.5023C15.6259 20.4184 15.7109 20.3587 15.7684 20.2995C16.1159 19.9447 16.4657 19.5898 16.8143 19.2344C16.8707 19.1769 16.9191 19.1133 16.9856 19.035C16.8002 19.0491 15.6597 20.2933 15.6298 20.4882C15.6675 20.4921 15.7047 20.4978 15.7408 20.5023M18.7885 19.7042C18.9231 19.97 19.0583 20.2342 19.1918 20.5023C19.3045 20.731 19.4126 20.9625 19.5241 21.1928C19.536 21.1883 19.5478 21.181 19.5607 21.1765C19.3259 20.6132 19.0932 20.0506 18.8595 19.4884C18.837 19.4907 18.8144 19.4935 18.7919 19.498C18.7919 19.5695 18.7919 19.6394 18.7908 19.7092L18.6533 19.5279C18.6686 19.8388 18.646 20.1142 18.7057 20.3716C18.7829 20.7022 18.9265 21.016 19.0352 21.3207C19.0644 21.1542 19.0335 20.9827 18.9479 20.8369C18.7378 20.4786 18.7542 20.0928 18.7885 19.7042ZM19.8418 17.0281L19.7917 17.1718C19.8227 17.1729 19.8581 17.1836 19.8829 17.1746C20.4225 16.947 20.9616 16.7167 21.5 16.4874C21.4972 16.4767 21.4916 16.4671 21.4888 16.4564L19.8362 17.0338C19.9973 16.9177 20.1612 16.8011 20.3211 16.6829C20.4411 16.5939 20.5881 16.5201 20.6715 16.4029C20.7937 16.2328 20.9261 16.092 21.1103 15.9923C21.1773 15.9568 21.2336 15.9011 21.295 15.8532C21.1598 15.9043 21.0317 15.9728 20.9142 16.0571C20.8179 16.1247 20.716 16.1945 20.6478 16.2869C20.5268 16.4573 20.3581 16.5882 20.1629 16.6632C19.9911 16.7319 19.8356 16.8434 19.6745 16.9358L19.6931 17.0022C19.7449 17.0118 19.7922 17.0203 19.8418 17.0281ZM16.6499 18.7235C16.4826 18.8446 16.3311 18.9961 16.148 19.0823C15.8928 19.2006 15.761 19.4045 15.6405 19.6304C15.8168 19.4805 15.9655 19.2935 16.1581 19.1736C16.3581 19.0474 16.6048 18.9945 16.789 18.7855L16.6465 18.7275C16.6549 18.6785 16.6651 18.6312 16.6842 18.5461L14.9652 19.2806C14.9714 19.2924 14.9747 19.3031 14.9792 19.3149C15.5357 19.1172 16.0934 18.9195 16.6499 18.7235ZM17.8631 19.3358C18.2658 19.462 18.2658 19.462 18.6004 19.3409C18.5751 19.3893 18.5565 19.4282 18.5317 19.4732C19.3011 19.3989 19.9246 18.5827 19.861 17.7559C19.7922 16.8625 19.0279 16.2064 18.1092 16.2503C17.257 16.2931 16.5778 17.0439 16.5935 17.9254C16.6087 18.7286 17.2908 19.4834 18.005 19.4845C17.9645 19.4422 17.9234 19.4 17.8631 19.3358ZM19.8029 18.5686L19.7776 18.6289C19.8604 18.7478 21.2156 19.2682 21.5254 19.2823C20.9509 19.044 20.3758 18.8069 19.8029 18.5686ZM18.2844 21.4638L18.3098 21.466C18.3407 20.8814 18.3712 20.2956 18.3931 19.7109C18.3959 19.6732 18.3486 19.6321 18.3233 19.5921C18.3098 19.5994 18.2974 19.6039 18.2844 19.6095V21.4638ZM18.281 16.1771C18.4033 16.0931 18.4033 16.0931 18.3605 15.2471C18.3452 14.934 18.3238 14.6197 18.3047 14.3054L18.281 14.3076V16.1771ZM19.5253 14.6597C19.5144 14.6531 19.5029 14.6476 19.4909 14.6433C19.4396 14.7475 19.3873 14.8517 19.3377 14.9576C19.167 15.3158 18.9941 15.6707 18.8291 16.0312C18.7913 16.1083 18.7294 16.2007 18.8646 16.297C19.0899 15.7417 19.3067 15.1993 19.5253 14.6597ZM18.1836 19.5673C18.0574 19.6929 18.0828 21.0627 18.1836 21.4638V19.5673ZM19.9325 17.7852C19.9398 17.8032 19.9466 17.8206 19.955 17.8392H21.7963C21.2306 17.7823 20.6633 17.7423 20.0953 17.7192C20.0423 17.7164 19.9877 17.7632 19.9347 17.7852M21.8166 17.9468H19.9505L19.9516 18.0358C20.5735 18.0488 21.1942 17.9812 21.8166 17.9468ZM14.6604 17.9063C14.6604 17.9231 14.6604 17.9389 14.6588 17.9553C14.9314 17.9705 15.2045 17.9885 15.4789 18.0026C15.7717 18.0189 16.0646 18.0381 16.3581 18.0454C16.4077 18.0465 16.4589 17.9975 16.509 17.9716C16.464 17.9502 16.4178 17.9113 16.3739 17.9102C15.8027 17.9051 15.2321 17.9063 14.6604 17.9063ZM18.1847 14.3037L18.1622 14.3088C18.1312 14.8776 18.0997 15.4465 18.0721 16.0154C18.0709 16.0655 18.1132 16.1202 18.1346 16.1731C18.151 16.1668 18.1677 16.1614 18.1847 16.1568V14.3026M14.7213 17.815H16.5451C16.4065 17.7069 15.0147 17.7418 14.7213 17.815ZM20.7058 15.3451L20.6816 15.3204C20.2671 15.7 19.8514 16.0802 19.4363 16.4581C19.414 16.476 19.3972 16.4998 19.3878 16.5268C19.3816 16.555 19.3901 16.5871 19.3923 16.6164C19.4222 16.6096 19.4577 16.6108 19.4779 16.5944C19.5298 16.5516 19.5737 16.4992 19.621 16.4519C19.9821 16.0836 20.3437 15.7129 20.7058 15.344M18.5869 16.1878C18.6167 16.1985 18.646 16.2103 18.6748 16.2221C18.6995 16.1748 18.7316 16.1297 18.7457 16.0802C18.7942 15.8853 18.8381 15.6887 18.8843 15.4927C18.9023 15.4167 18.9474 15.3327 18.9305 15.264C18.8561 14.952 18.8871 14.6484 18.9744 14.3471C18.9795 14.3257 18.9519 14.2958 18.9355 14.262C18.9068 14.3994 18.877 14.5104 18.8617 14.6236C18.8403 14.7723 18.806 14.9261 18.8218 15.072C18.8454 15.2821 18.8178 15.4707 18.7378 15.6645C18.6691 15.8307 18.6353 16.0109 18.5869 16.1878ZM17.6733 19.4924C17.6481 19.4888 17.6227 19.4864 17.5972 19.485L16.9754 21.0346C16.9872 21.0391 17.0002 21.0464 17.0143 21.0509C17.2339 20.5885 17.4553 20.1255 17.6705 19.6591C17.6924 19.6146 17.6733 19.5487 17.6733 19.4924ZM16.1987 20.8949V20.9523C16.2477 20.9343 16.3187 20.9332 16.3451 20.8977C16.4623 20.7434 16.5952 20.589 16.6713 20.4139C16.7777 20.1717 16.8859 19.9441 17.101 19.7751C17.1923 19.703 17.2655 19.6045 17.3353 19.5104C17.3618 19.4732 17.3545 19.4107 17.3618 19.3611C17.199 19.5048 17.0627 19.6484 16.9484 19.8061C16.847 19.9447 16.7293 20.0894 16.6921 20.2483C16.6318 20.509 16.4443 20.6752 16.3046 20.878C16.2905 20.8971 16.2359 20.8915 16.1987 20.8949ZM15.7661 15.3108C15.7571 15.322 15.7458 15.3333 15.7363 15.3457C15.8726 15.4747 16.01 15.6042 16.1429 15.7355C16.4172 16.007 16.6876 16.2813 16.9642 16.5505C16.9923 16.5775 17.0447 16.5804 17.0864 16.5944C17.0723 16.5516 17.0684 16.5015 17.0447 16.4649C17.016 16.4226 16.9709 16.3939 16.9349 16.359C16.6244 16.0774 16.3131 15.7967 16.001 15.5169C15.9249 15.4488 15.8455 15.3801 15.7661 15.3108ZM20.7042 20.4533C20.7149 20.4427 20.7245 20.431 20.7329 20.4184C20.3307 20.0162 19.9246 19.6129 19.5185 19.2119C19.4875 19.1798 19.4284 19.1764 19.3844 19.1606C19.4008 19.2096 19.4059 19.271 19.4402 19.3042C19.5889 19.4507 19.7455 19.5904 19.8993 19.7306C20.1679 19.9745 20.4372 20.2128 20.7042 20.4533ZM15.7042 15.4488L15.6968 15.4527C15.7909 15.5569 15.8833 15.6611 15.9785 15.7659C16.2477 16.0622 16.5152 16.3618 16.7884 16.6541C16.8278 16.6958 16.8943 16.7116 16.9478 16.7398L16.963 16.6969C16.544 16.2801 16.1227 15.8639 15.7042 15.4488ZM14.9708 16.4891C15.5335 16.7189 16.0956 16.9498 16.6938 17.196C16.6273 17.0219 15.4197 16.5398 14.9708 16.4891ZM19.4937 16.7037C19.5151 16.7262 19.5377 16.7488 19.5613 16.7713C20.0063 16.3455 20.391 15.8628 20.8117 15.4144C20.8236 15.4251 20.8343 15.4358 20.8444 15.4477C20.3927 15.8661 19.9443 16.2835 19.4937 16.7037ZM19.8942 17.432C19.9026 17.4472 19.9094 17.463 19.9167 17.4782C20.1291 17.4641 20.3431 17.4641 20.5526 17.432C20.7092 17.4095 20.8613 17.3481 21.0151 17.3008C21.1598 17.2568 21.3001 17.2056 21.4448 17.1644C21.5299 17.1408 21.6194 17.1318 21.7084 17.1183C21.7011 17.0929 21.6955 17.0681 21.6893 17.0433C21.5135 17.0884 21.3277 17.1109 21.1638 17.1808C20.9159 17.2884 20.6715 17.3768 20.3949 17.343C20.299 17.3309 20.2019 17.3326 20.1065 17.3481C20.0333 17.3599 19.9646 17.4021 19.8942 17.432ZM19.0859 16.386L19.1518 16.4181C19.2172 16.3308 19.2718 16.2311 19.3501 16.1551C19.5962 15.9197 19.7703 15.6566 19.8627 15.3175C19.9173 15.1238 20.0688 14.9402 20.2699 14.823C20.2124 14.8315 20.1381 14.8405 20.1071 14.8833C19.9961 15.0292 19.8773 15.1767 19.8046 15.344C19.7016 15.5795 19.6047 15.8104 19.3901 15.9715C19.3136 16.0307 19.2458 16.1003 19.1884 16.1782C19.1434 16.239 19.1186 16.3162 19.0859 16.386ZM16.8414 14.6157C16.83 14.6216 16.8181 14.6263 16.8059 14.6298C17.0008 15.1711 17.194 15.7118 17.3945 16.2503C17.4074 16.2858 17.466 16.3038 17.5009 16.3325C17.5139 16.3207 17.5274 16.3089 17.5387 16.2976L16.8414 14.6157ZM16.6121 17.3255C16.6144 17.3008 16.6183 17.2771 16.6217 17.2517C16.0872 17.0321 15.5532 16.8118 15.0187 16.5911C15.4901 16.8609 15.9773 17.0946 16.4662 17.3222C16.5079 17.3419 16.5631 17.3255 16.6121 17.3255ZM16.8352 21.2565C16.8504 21.1928 16.8639 21.1106 16.8943 21.0346C17.083 20.5564 17.2762 20.081 17.4677 19.6028C17.4874 19.5504 17.4998 19.4963 17.5263 19.4118C17.3382 19.5295 16.7867 21.0943 16.8352 21.2565ZM21.5457 16.595L21.522 16.5584L19.8458 17.276C19.8598 17.3069 19.8745 17.3362 19.8869 17.3683C20.4501 17.1357 20.992 16.8496 21.5457 16.595ZM21.4544 19.1629L21.4662 19.1313C20.9824 18.9004 20.4991 18.6695 20.0153 18.4425C19.9691 18.4211 19.9066 18.4385 19.8514 18.4385L19.8396 18.496C20.3786 18.719 20.9159 18.9426 21.4544 19.1629ZM18.9468 16.3111C19.0989 16.2616 19.6374 14.8568 19.6526 14.5521L18.9468 16.3111ZM14.9984 19.133C15.0057 19.1448 15.0136 19.1589 15.0221 19.1708C15.5532 18.9443 16.0855 18.7151 16.6166 18.4875C16.6037 18.4599 16.5902 18.4312 16.58 18.4019C16.0376 18.612 15.5295 18.8993 14.9984 19.133ZM19.9685 18.0994C19.9708 18.1096 19.9719 18.1186 19.9747 18.1282C20.2012 18.211 20.4242 18.3062 20.6557 18.376C20.7644 18.4081 20.8906 18.4092 21.0044 18.3935C21.3142 18.3535 21.5901 18.4335 21.8667 18.5692C21.834 18.5219 21.7991 18.4627 21.7518 18.4492C21.5749 18.4019 21.3908 18.3332 21.2128 18.3416C20.9283 18.3529 20.6625 18.3405 20.4096 18.198C20.324 18.1549 20.2334 18.1227 20.1398 18.1023C20.0851 18.0876 20.026 18.0994 19.9685 18.0994ZM20.6191 20.1029C20.6159 20.1089 20.612 20.1144 20.6073 20.1193C20.2896 19.7706 19.9742 19.4197 19.6537 19.0722C19.6227 19.0384 19.5675 19.0294 19.5236 19.008C19.5202 19.0181 19.5163 19.0243 19.514 19.0333C19.8807 19.3904 20.2513 19.747 20.6191 20.1029ZM21.455 18.4611C21.1739 18.4611 20.9154 18.4909 20.6664 18.4515C20.4152 18.4126 20.1944 18.2211 19.8953 18.2673C19.9195 18.314 19.9308 18.3636 19.9494 18.3647C20.4394 18.4137 20.9069 18.6999 21.455 18.4611ZM16.5451 17.5266C16.5564 17.5001 16.5676 17.4731 16.58 17.4466C16.5209 17.4179 16.4651 17.3802 16.402 17.3644C16.2606 17.3312 16.1046 17.3374 15.974 17.2805C15.685 17.1521 15.4107 17.2044 15.1206 17.3143C15.6354 17.1228 16.0663 17.4816 16.5451 17.5266ZM16.4386 15.1717C16.4246 15.1812 16.4122 15.1914 16.3998 15.2015C16.4921 15.2961 16.5733 15.4026 16.6775 15.4814C16.8323 15.5952 16.9371 15.736 17.0109 15.9163C17.0689 16.061 17.1483 16.1985 17.2289 16.3325C17.2503 16.3674 17.3145 16.3753 17.3584 16.3939C17.3472 16.3443 17.3494 16.2841 17.3235 16.2469C17.0498 15.8707 16.856 15.4302 16.4386 15.1717ZM17.8524 19.5481C17.6519 19.663 17.5285 20.6048 17.6553 20.9895C17.666 20.7535 17.6339 20.5085 17.6739 20.2787C17.7183 20.0399 17.8834 19.8292 17.8524 19.5481ZM19.6576 18.852C19.6362 18.8767 19.6165 18.9015 19.5951 18.928C19.7883 19.0761 19.9708 19.2445 20.1798 19.369C20.3972 19.4991 20.6399 19.5876 20.8726 19.694L20.9035 19.6264C20.8224 19.5909 20.747 19.5363 20.6636 19.5205C20.418 19.4766 20.2305 19.3482 20.0609 19.1696C19.946 19.0468 19.7945 18.9556 19.6576 18.852ZM18.8916 21.0785C18.8713 20.9996 18.8702 20.8791 18.8122 20.7986C18.6291 20.5434 18.601 20.2612 18.6094 19.9599C18.6117 19.8326 18.5666 19.7058 18.5368 19.5425C18.481 19.5971 18.4506 19.6135 18.4528 19.6247C18.5593 20.1277 18.5204 20.6724 18.8916 21.0785ZM17.6474 21.4125C17.6637 21.4159 17.6806 21.4181 17.6958 21.4232C17.7279 21.2458 17.7983 21.0661 17.7837 20.8932C17.755 20.5721 17.7882 20.2764 17.9436 19.9925C17.9803 19.9249 18.0017 19.8444 18.0169 19.7689C18.027 19.7177 18.0101 19.6608 18.0062 19.6061C17.8913 19.8765 17.7476 20.1401 17.7336 20.4122C17.7161 20.7405 17.742 21.07 17.6327 21.3905C17.631 21.3945 17.6434 21.4057 17.6474 21.4125ZM17.5843 14.6642C17.6034 14.7402 17.6034 14.8714 17.6665 14.9604C17.8456 15.219 17.8744 15.5012 17.8665 15.8014C17.8642 15.9287 17.9093 16.0548 17.9335 16.181C17.9566 16.1883 17.9797 16.1928 18.0005 16.1985C18.0107 16.1776 18.027 16.1551 18.0231 16.1359C17.9245 15.62 17.9318 15.0737 17.5843 14.6642ZM15.5769 16.1444C15.6754 16.1799 15.7785 16.2069 15.872 16.2537C16.0337 16.3365 16.1936 16.4232 16.3457 16.5246C16.4747 16.6125 16.5856 16.7285 16.7107 16.8237C16.745 16.8485 16.807 16.8411 16.8554 16.8485C16.8233 16.8023 16.8008 16.7454 16.758 16.715C16.6763 16.6564 16.5659 16.6294 16.5006 16.5595C16.2511 16.2948 15.9475 16.1466 15.5769 16.1444ZM19.9381 17.5852L19.9556 17.6686C20.4693 17.5683 21.0139 17.5936 21.446 17.2236C21.3536 17.2495 21.2314 17.2591 21.1446 17.3182C20.9137 17.4821 20.6642 17.5199 20.3904 17.5154C20.2395 17.5125 20.0874 17.5598 19.9381 17.5852ZM19.225 16.4694C19.2526 16.4897 19.2825 16.5083 19.3078 16.5285C19.5202 16.0836 20.0136 15.8002 19.9911 15.2066C19.9522 15.2978 19.8976 15.3744 19.8846 15.4584C19.8435 15.7129 19.7072 15.9016 19.5253 16.0762C19.4075 16.1895 19.3236 16.3382 19.225 16.4694ZM15.0468 18.5286C15.1161 18.5084 15.2271 18.5039 15.3042 18.4504C15.5442 18.2831 15.8027 18.2352 16.0889 18.2436C16.2347 18.2487 16.384 18.1952 16.5321 18.1676C16.5237 18.1406 16.5197 18.1152 16.5124 18.0882C16.0044 18.2025 15.4552 18.1575 15.0468 18.5286ZM17.2424 19.289L17.1585 19.2344C16.9557 19.6794 16.4612 19.9604 16.4837 20.5524C16.5214 20.4674 16.5716 20.3998 16.5834 20.3271C16.6234 20.05 16.7755 19.845 16.972 19.6563C17.0813 19.5515 17.1534 19.413 17.2424 19.289ZM17.1692 16.5167C17.1861 16.5043 17.203 16.4897 17.2204 16.4756C16.9495 16.1957 16.9822 15.7197 16.598 15.5265C16.6893 15.6814 16.794 15.8442 16.8842 16.0137C16.9422 16.1224 16.9726 16.2452 17.0301 16.3539C17.061 16.4159 17.1207 16.4632 17.1692 16.5167ZM18.4241 16.1455C18.4528 16.1545 18.4832 16.1607 18.5142 16.1709C18.5204 15.7873 18.8556 15.4769 18.7502 15.1176C18.6855 15.3063 18.6055 15.5321 18.5328 15.7591C18.4917 15.8859 18.4607 16.016 18.4241 16.1455ZM15.9176 19.4766C16.1007 19.3842 16.2939 19.2879 16.4865 19.1893C16.5828 19.1409 16.6803 19.097 16.7704 19.0384C16.8048 19.0175 16.8216 18.9674 16.8453 18.9308L16.8121 18.8987C16.5569 19.173 16.1035 19.1398 15.9171 19.4766M19.6041 16.7978C19.6205 16.8209 19.6374 16.8428 19.6537 16.8642C19.9066 16.5882 20.3561 16.6187 20.5414 16.3083C20.3313 16.4057 20.0891 16.5145 19.8531 16.6333C19.7641 16.6767 19.6858 16.742 19.6041 16.7978ZM19.8491 20.2111C19.759 20.0567 19.6695 19.9109 19.5906 19.7577C19.5303 19.6428 19.4937 19.5155 19.4346 19.4017C19.4047 19.3459 19.3445 19.3054 19.2994 19.2581L19.2566 19.2935C19.5258 19.556 19.4937 20.0055 19.8491 20.2111ZM15.8399 19.618C15.618 19.7447 15.4439 19.9176 15.1916 19.939C15.3392 20.0303 15.6242 19.8917 15.8399 19.618ZM20.0941 20.3744L20.0502 20.3998C20.1251 20.5299 20.1983 20.6594 20.2721 20.7912C20.2896 20.7794 20.3076 20.7698 20.3256 20.7574C20.2479 20.6307 20.1713 20.5012 20.0941 20.3744ZM16.2032 14.9604C16.1857 14.9711 16.1683 14.983 16.1508 14.9925C16.2269 15.1255 16.3035 15.2561 16.3784 15.3874C16.3936 15.3801 16.4093 15.371 16.4234 15.3637L16.2032 14.9604Z" fill="#7B4022"/>
<path fill-rule="evenodd" clip-rule="evenodd" d="M17.8642 19.3364C17.9244 19.4006 17.9656 19.4429 18.0055 19.4851C17.2913 19.484 16.6092 18.7292 16.594 17.926C16.5788 17.0451 17.2581 16.2943 18.1097 16.2509C19.029 16.207 19.7927 16.8632 19.8615 17.7565C19.9246 18.5834 19.3016 19.3995 18.5322 19.4739C18.557 19.4288 18.5756 19.3899 18.6009 19.3415C18.2669 19.4626 18.2669 19.4626 17.8642 19.3364ZM18.5513 18.0578C18.5451 18.0742 18.5389 18.0928 18.5311 18.1091C18.5451 18.1164 18.5626 18.1221 18.5716 18.1328C18.6071 18.1744 18.6403 18.2156 18.6741 18.2589C18.624 18.2685 18.5716 18.2815 18.5198 18.2888C18.4911 18.2933 18.4488 18.2769 18.4325 18.291C18.2815 18.4296 18.1464 18.3845 18.0089 18.3017C17.9413 18.2922 17.8737 18.282 17.8062 18.2708L17.9346 18.0624C17.8681 18.0809 17.7893 18.0826 17.7493 18.1215C17.7138 18.1547 17.6946 18.2471 17.7172 18.2848C17.7481 18.3383 17.8191 18.3772 17.8811 18.4014C17.9273 18.4189 17.983 18.4048 18.0348 18.4048L18.0455 18.4521C17.9819 18.4713 17.9166 18.5084 17.8535 18.5056C17.7583 18.5023 17.667 18.5056 17.667 18.6183C17.6682 18.7135 17.7374 18.7771 17.8484 18.7771C18.1109 18.7749 18.3734 18.776 18.6347 18.7749C18.6561 18.7749 18.6882 18.7782 18.7 18.7653C18.7412 18.714 18.7913 18.6605 18.8076 18.6014C18.8116 18.58 18.7293 18.5203 18.6792 18.5051C18.5902 18.4803 18.4967 18.4741 18.4055 18.4617C18.4055 18.4465 18.4055 18.4307 18.4066 18.4138C18.4618 18.4093 18.5192 18.4155 18.5716 18.4003C18.6353 18.38 18.7186 18.3564 18.7519 18.3074C18.7778 18.2651 18.7671 18.1666 18.7327 18.1249C18.6955 18.0815 18.6144 18.0781 18.5513 18.0578ZM17.2536 17.2361C17.7791 17.0896 17.9932 17.1234 18.0129 17.356C17.7414 17.2434 17.4817 17.2034 17.2457 17.4518C17.4851 17.6968 17.7504 17.6523 18.0241 17.5633C17.8388 17.7317 17.618 17.7244 17.3882 17.712C17.489 17.7593 17.5955 17.8016 17.7003 17.7982C17.8067 17.7948 17.9115 17.7424 18.0326 17.7081V18.0578C18.1357 17.8861 18.1616 17.356 18.081 17.2169C18.0647 17.187 18.042 17.161 18.0146 17.1409C17.836 16.9972 17.3984 16.9916 17.2536 17.2361ZM19.2261 17.4512C18.989 17.2 18.7254 17.2473 18.4342 17.3611C18.4826 17.1403 18.6499 17.1488 18.7806 17.1476C18.9191 17.1476 19.0577 17.1938 19.2351 17.2276C19.0459 17.0434 18.8589 17.0102 18.6477 17.0586C18.4302 17.1088 18.3536 17.1893 18.3486 17.4062C18.3441 17.5808 18.3587 17.7576 18.3688 17.9322C18.3717 17.9688 18.3964 18.006 18.4117 18.0421L18.4494 18.0348V17.6945C18.6736 17.7982 18.8786 17.868 19.1242 17.676C18.8538 17.7283 18.6341 17.7283 18.4494 17.5633C18.7231 17.6585 18.9839 17.6934 19.2261 17.4512ZM17.9684 19.0728H18.5142C18.4381 19.0368 18.3818 19.0081 18.326 18.9805C18.326 18.9664 18.3243 18.9517 18.3232 18.9393C18.4195 18.9393 18.5142 18.9309 18.6082 18.9405C18.7293 18.9557 18.7704 18.9376 18.8054 18.8408H17.6676C17.7279 18.887 17.8028 18.9236 17.8799 18.9343C17.9791 18.9461 18.0793 18.9365 18.179 18.9365C18.179 18.9506 18.179 18.9664 18.1768 18.9805C18.1131 19.0081 18.0495 19.0379 17.9695 19.0728M16.6509 18.7225L14.9809 19.3145C14.9758 19.3026 14.9724 19.2919 14.9668 19.2801C15.5267 19.0413 16.0843 18.8019 16.6858 18.5456C16.6667 18.6307 16.656 18.678 16.6481 18.727L16.6509 18.7225ZM19.8057 18.5704C20.3785 18.8087 20.9536 19.0464 21.5281 19.2846C21.2183 19.2705 19.8637 18.7501 19.7804 18.6312L19.8057 18.5704ZM19.8451 17.0271L19.6976 17.0023L19.679 16.9358C19.8401 16.8435 19.9961 16.7319 20.1673 16.6632C20.3701 16.581 20.5261 16.4633 20.6523 16.287C20.7204 16.1946 20.8224 16.1248 20.9187 16.0572C21.0319 15.9749 21.1592 15.9062 21.2994 15.8533C21.2381 15.9011 21.1817 15.9569 21.1147 15.9924C20.9305 16.0921 20.7976 16.2329 20.6759 16.403C20.5926 16.5202 20.4456 16.5939 20.3256 16.6829C20.1656 16.8012 20.0017 16.9178 19.8406 17.0339L19.8451 17.0271Z" fill="#FDD12E"/>
<path fill-rule="evenodd" clip-rule="evenodd" d="M19.8387 17.0327C20.3896 16.8395 20.9393 16.6469 21.4913 16.4554C21.4941 16.4661 21.4998 16.4757 21.5026 16.4864C20.9641 16.715 20.4251 16.9454 19.8855 17.1735C19.8607 17.1831 19.8252 17.1718 19.7942 17.1707L19.8444 17.0271L19.8387 17.0327ZM18.2847 21.4655V19.6113C18.2977 19.6057 18.3101 19.6006 18.3236 19.5938C18.3489 19.6338 18.3963 19.6749 18.3934 19.7127C18.3715 20.2973 18.3405 20.8831 18.3101 21.4678L18.2847 21.4655ZM18.2813 16.1788V14.3094L18.305 14.3071C18.3236 14.6214 18.345 14.9357 18.3608 15.2489C18.4036 16.0943 18.4036 16.0943 18.2813 16.1788ZM19.5256 14.6614C19.307 15.201 19.0902 15.7434 18.8649 16.2982C18.7297 16.2019 18.7911 16.1095 18.8294 16.0324C18.9944 15.6713 19.1679 15.3165 19.338 14.9588C19.3881 14.8529 19.4405 14.7487 19.4912 14.6445C19.503 14.6496 19.5137 14.6547 19.5256 14.6614ZM18.1828 19.569V21.4655C18.082 21.0645 18.0572 19.6947 18.1828 19.569ZM19.9345 17.7869C19.988 17.7649 20.0421 17.7182 20.0945 17.721C20.6633 17.7469 21.2322 17.7802 21.7955 17.841H19.9542C19.9464 17.8232 19.9391 17.8051 19.9322 17.7869M21.8146 17.9486C21.1922 17.9829 20.5715 18.0505 19.9497 18.0376L19.9486 17.9486H21.8146ZM14.6585 17.908C15.2302 17.908 15.8002 17.9069 16.3714 17.912C16.4153 17.9131 16.4615 17.9519 16.5065 17.9734C16.4564 17.9993 16.4052 18.0483 16.3556 18.0471C16.0621 18.0398 15.7692 18.0207 15.4763 18.0043C15.202 17.9902 14.9289 17.9722 14.6562 17.957C14.6585 17.9407 14.6585 17.9249 14.6585 17.908ZM18.1828 14.3054V16.1597C18.1659 16.1642 18.149 16.1704 18.1326 16.176C18.1112 16.1225 18.069 16.0684 18.0701 16.0183C18.0977 15.4477 18.1293 14.8783 18.1602 14.3116L18.1828 14.3066M14.7188 17.8179C15.0122 17.7447 16.404 17.7103 16.5426 17.8179H14.7188ZM20.7039 15.3486C20.3417 15.7175 19.9801 16.0881 19.6191 16.4571C19.5718 16.5044 19.5278 16.5568 19.476 16.5996C19.4557 16.6159 19.4197 16.6148 19.3904 16.6215C19.3881 16.5923 19.3797 16.5601 19.3859 16.532C19.3952 16.505 19.412 16.4811 19.4343 16.4633C19.8494 16.0836 20.2651 15.7034 20.6797 15.3255C20.688 15.3333 20.6961 15.3414 20.7039 15.3497M18.7911 19.7099V19.4975C18.8136 19.493 18.8362 19.4902 18.8587 19.4879C19.0924 20.0501 19.3251 20.6128 19.5599 21.176C19.547 21.1805 19.5351 21.1878 19.5233 21.1923C19.4118 20.9625 19.3037 20.731 19.191 20.5018C19.0581 20.2337 18.9223 19.9695 18.7877 19.7037L18.7911 19.7099ZM15.7411 20.5035C15.7675 20.4562 15.7839 20.4004 15.8199 20.3638C16.1849 19.9853 16.5522 19.6079 16.9217 19.2373C16.9594 19.1996 17.0281 19.1922 17.0833 19.1686C17.058 19.2255 17.0478 19.297 17.0073 19.3342C16.6085 19.7008 16.2041 20.0641 15.8025 20.428C15.7777 20.4494 15.7614 20.4776 15.7411 20.5035V20.5052V20.5035ZM18.5849 16.1918C18.6334 16.0149 18.6672 15.8347 18.7359 15.6674C18.8164 15.4736 18.8435 15.2849 18.8198 15.0749C18.8046 14.929 18.8384 14.7752 18.8598 14.6265C18.875 14.5139 18.9049 14.4029 18.9336 14.2649C18.9499 14.2993 18.9775 14.3285 18.9725 14.3499C18.8852 14.6513 18.8542 14.9549 18.9285 15.2669C18.9454 15.3356 18.9004 15.4196 18.8823 15.4956C18.8362 15.6916 18.7922 15.8882 18.7438 16.0831C18.7297 16.1326 18.6976 16.1777 18.6728 16.225L18.5849 16.1918ZM17.6758 16.0628V16.2639L17.6083 16.278C17.3846 15.7395 17.161 15.1999 16.9369 14.6625C16.9491 14.6556 16.9619 14.6497 16.9752 14.6451C17.0811 14.8631 17.1836 15.0839 17.2923 15.3018C17.419 15.5581 17.5497 15.8133 17.6787 16.0667L17.6758 16.0628Z" fill="#FDD12E"/>
<path fill-rule="evenodd" clip-rule="evenodd" d="M15.741 20.5022C15.7049 20.4972 15.6677 20.4915 15.63 20.4881C15.6599 20.2933 16.8004 19.049 16.9858 19.0349C16.9193 19.1138 16.8709 19.1774 16.8145 19.2343C16.4659 19.5898 16.1161 19.9446 15.7686 20.2995C15.7111 20.3586 15.6261 20.4183 15.741 20.5033V20.5022ZM17.6701 19.4963C17.6701 19.5526 17.6893 19.6185 17.6679 19.6635C17.4527 20.1299 17.2313 20.5923 17.0117 21.0553C16.9976 21.0503 16.9846 21.0435 16.9728 21.039C17.179 20.5231 17.3868 20.0054 17.5946 19.4895C17.6189 19.4906 17.6453 19.4929 17.6701 19.4963ZM16.1966 20.8965C16.2338 20.8931 16.2885 20.8993 16.3025 20.8802C16.4417 20.6774 16.6292 20.5112 16.6901 20.2504C16.7272 20.0916 16.8449 19.9469 16.9463 19.8083C17.0607 19.6506 17.197 19.507 17.3598 19.3633C17.3524 19.4129 17.3598 19.4748 17.3333 19.5126C17.2634 19.6066 17.1902 19.7052 17.099 19.7773C16.8838 19.9463 16.7762 20.1738 16.6692 20.416C16.5932 20.5918 16.4602 20.7455 16.3431 20.8999C16.3166 20.9354 16.2456 20.9359 16.1966 20.9545V20.8965ZM15.7641 15.3147C15.8435 15.3834 15.9223 15.4521 15.9984 15.5208C16.311 15.8007 16.6213 16.0807 16.9323 16.3629C16.9683 16.3978 17.0139 16.426 17.0421 16.4688C17.0657 16.5054 17.0697 16.5555 17.0838 16.5983C17.0421 16.5842 16.9897 16.5814 16.9615 16.5544C16.685 16.2846 16.4146 16.0108 16.1403 15.7394C16.0064 15.6077 15.8708 15.4778 15.7336 15.3496C15.7438 15.3372 15.7556 15.3259 15.7641 15.3147ZM20.7021 20.4572C20.4351 20.2161 20.1659 19.9778 19.8967 19.7351C19.7429 19.5948 19.5857 19.4551 19.4376 19.3087C19.4032 19.2755 19.3987 19.2141 19.3818 19.1651C19.4258 19.1803 19.4855 19.1842 19.5159 19.2163C19.9226 19.6174 20.3281 20.0206 20.7303 20.4228C20.7221 20.4352 20.7127 20.4467 20.7021 20.4572ZM15.7021 15.4527L16.961 16.7008C16.9559 16.7149 16.9497 16.7296 16.9458 16.7436C16.8917 16.7149 16.8258 16.6997 16.7864 16.658C16.5138 16.3651 16.2456 16.066 15.9764 15.7698C15.8812 15.665 15.7888 15.5608 15.6948 15.4566C15.6972 15.4552 15.6996 15.4539 15.7021 15.4527ZM14.9688 16.4919C15.4177 16.5426 16.6247 17.0241 16.6917 17.1987C16.0936 16.9532 15.5314 16.7217 14.9688 16.4919ZM19.49 16.7076L20.8401 15.4515C20.8301 15.4396 20.8192 15.4285 20.8074 15.4183C20.3867 15.8666 20.002 16.3494 19.557 16.7752C19.5342 16.7531 19.5119 16.7305 19.49 16.7076ZM19.8893 17.4359C19.9597 17.406 20.0279 17.3638 20.1017 17.3519C20.1971 17.337 20.2942 17.3353 20.3901 17.3469C20.6666 17.3807 20.9111 17.2922 21.1589 17.1847C21.3228 17.1148 21.5087 17.0923 21.6844 17.0472C21.6906 17.072 21.6962 17.0968 21.7036 17.1221C21.6146 17.1357 21.5256 17.1447 21.44 17.1683C21.2952 17.2094 21.155 17.2607 21.0102 17.3046C20.8564 17.3519 20.7044 17.4133 20.5478 17.4359C20.3382 17.468 20.1242 17.468 19.9119 17.4821C19.905 17.4663 19.8975 17.4509 19.8893 17.4359ZM19.0822 16.3905C19.1154 16.3206 19.1402 16.2435 19.1841 16.1832C19.2422 16.1055 19.3114 16.0334 19.3858 15.9765C19.6004 15.8154 19.6978 15.5845 19.8003 15.349C19.873 15.1817 19.9918 15.0336 20.1028 14.8883C20.1338 14.8455 20.2087 14.8359 20.2656 14.828C20.0651 14.9452 19.913 15.1288 19.8583 15.3225C19.766 15.6622 19.5914 15.9247 19.3458 16.1601C19.2675 16.2361 19.2134 16.3358 19.1475 16.4231C19.1261 16.4115 19.1044 16.4006 19.0822 16.3905ZM16.8376 14.6196L17.5349 16.3015L17.4972 16.3364C17.4617 16.3077 17.4037 16.2902 17.3907 16.2542C17.1908 15.7157 16.997 15.175 16.8021 14.6337C16.8144 14.6301 16.8262 14.6254 16.8376 14.6196ZM16.6084 17.3294C16.5594 17.3294 16.5036 17.3458 16.4625 17.326C15.9736 17.0985 15.4864 16.8647 15.0149 16.5949C15.5489 16.8157 16.0829 17.036 16.618 17.2556C16.6146 17.281 16.6106 17.3046 16.6084 17.3294ZM16.8314 21.2604C16.783 21.0981 17.335 19.5334 17.5225 19.4163C17.4961 19.5002 17.4842 19.5548 17.464 19.6072C17.2725 20.0854 17.0793 20.5608 16.8906 21.039C16.8602 21.1145 16.8466 21.1967 16.8314 21.2604ZM21.5397 16.5989C20.986 16.8535 20.4453 17.1396 19.8814 17.3722C19.8691 17.3401 19.8544 17.3108 19.8403 17.2799C20.4002 17.0399 20.9573 16.8011 21.5166 16.5623L21.5397 16.5989ZM17.6814 16.0666C17.7163 15.6718 17.7219 15.2859 17.518 14.9176C17.442 14.7762 17.442 14.5937 17.3969 14.3887C17.4623 14.4264 17.4792 14.4298 17.4792 14.436C17.5062 14.7407 17.5727 15.033 17.7422 15.2983C17.7861 15.367 17.7839 15.4718 17.7861 15.5602C17.7912 15.7731 17.7873 15.9866 17.7873 16.199C17.7519 16.1549 17.7166 16.1108 17.6814 16.0666ZM18.791 19.7041C18.7561 20.0927 18.7397 20.4786 18.9498 20.8362C19.0411 20.99 19.0647 21.1697 19.0371 21.3201C18.9284 21.0153 18.7848 20.7016 18.7076 20.371C18.6485 20.1136 18.671 19.8381 18.6552 19.5272L18.7927 19.7086C18.7944 19.7103 18.791 19.7041 18.791 19.7041ZM19.076 19.4703L19.6297 21.0458C19.6167 21.0491 19.606 21.0542 19.5942 21.0576C19.3734 20.5242 19.1532 19.9897 18.9312 19.4574C18.9436 19.4478 18.956 19.4382 18.9684 19.4298C19.0056 19.445 19.0422 19.4596 19.0788 19.4765L19.076 19.4703ZM21.4495 19.1673C20.9111 18.9465 20.3737 18.7235 19.8353 18.5004C19.8392 18.4824 19.8437 18.4627 19.8471 18.443C19.9023 18.443 19.9648 18.4255 20.011 18.4469C20.4948 18.6733 20.9781 18.9048 21.4619 19.1358L21.4495 19.1673ZM18.9431 16.315L19.6488 14.556C19.633 14.8607 19.0946 16.2654 18.9431 16.315Z" fill="#FDD12E"/>
<path fill-rule="evenodd" clip-rule="evenodd" d="M19.0802 19.4767C19.0954 19.4327 19.109 19.3877 19.1315 19.3173C19.3613 19.5088 19.3974 19.7775 19.5337 19.9819C19.666 20.1824 19.866 20.3418 20.0248 20.5277C19.8006 20.3655 19.5449 20.2506 19.4244 19.9645C19.3484 19.7831 19.1957 19.6355 19.0774 19.4733L19.0802 19.4778M14.9961 19.1376C15.5272 18.9038 16.0353 18.6166 16.5777 18.4065C16.5884 18.4363 16.6014 18.4651 16.6143 18.4921C16.0832 18.7197 15.5509 18.9489 15.0198 19.1753C15.0113 19.1629 15.0034 19.1489 14.9961 19.1376ZM19.9691 18.1029C20.0265 18.1029 20.0856 18.0911 20.1403 18.1057C20.2327 18.1282 20.3262 18.1564 20.4101 18.2015C20.663 18.344 20.9288 18.3558 21.2133 18.3451C21.3913 18.3367 21.5755 18.4054 21.7523 18.4527C21.7996 18.4656 21.8346 18.5253 21.8672 18.5727C21.5907 18.4375 21.3147 18.3569 21.0049 18.3969C20.8887 18.4146 20.7701 18.4087 20.6562 18.3795C20.4247 18.3096 20.2017 18.2144 19.9753 18.1316C19.9724 18.1221 19.9713 18.1125 19.9691 18.1029ZM20.6168 20.1075C20.2496 19.7515 19.8784 19.3944 19.5111 19.0379C19.5134 19.0289 19.5173 19.0227 19.5207 19.0126C19.5646 19.034 19.6204 19.0435 19.6508 19.0768C19.9713 19.4243 20.2867 19.7752 20.6044 20.1239C20.6094 20.1192 20.6136 20.1136 20.6168 20.1075Z" fill="#FDD12E"/>
<path fill-rule="evenodd" clip-rule="evenodd" d="M21.4495 18.4657C20.9015 18.7045 20.434 18.4184 19.9434 18.3694C19.9254 18.3682 19.9136 18.3187 19.8893 18.2719C20.1884 18.2257 20.4092 18.4172 20.6604 18.4561C20.9099 18.4955 21.1685 18.4657 21.4495 18.4657ZM16.5436 17.534C16.0643 17.489 15.634 17.1302 15.1191 17.3217C15.4064 17.2124 15.6824 17.16 15.9725 17.2879C16.1026 17.3454 16.2592 17.3392 16.4005 17.3718C16.4636 17.387 16.5194 17.4253 16.5785 17.4541C16.5661 17.4805 16.5549 17.5076 16.5436 17.534ZM16.6467 18.7281C16.6884 18.7445 16.7306 18.7625 16.7892 18.7862C16.605 18.9951 16.3583 19.0486 16.1583 19.1742C15.9657 19.2942 15.8176 19.4812 15.6407 19.631C15.7618 19.4057 15.8931 19.2013 16.1482 19.083C16.3307 18.9974 16.4828 18.8453 16.6501 18.7231L16.6467 18.7281ZM16.4366 15.1763C16.854 15.4348 17.0477 15.8747 17.3215 16.2521C17.3474 16.2887 17.3451 16.3495 17.3564 16.3991C17.3124 16.3805 17.2482 16.3721 17.2268 16.3377C17.1432 16.205 17.0704 16.0658 17.0089 15.9215C16.9418 15.7475 16.826 15.5965 16.6754 15.4866C16.5706 15.4078 16.4901 15.3013 16.3977 15.2067C16.41 15.1957 16.4229 15.1855 16.4366 15.1763ZM17.8492 19.5527C17.8802 19.8338 17.7152 20.0445 17.6712 20.2833C17.6312 20.5131 17.6628 20.7581 17.6527 20.9941C17.5254 20.6094 17.6487 19.6676 17.8492 19.5527ZM19.6545 18.8566C19.7908 18.9608 19.9428 19.052 20.0577 19.1742C20.2278 19.3528 20.4154 19.4812 20.6604 19.5251C20.7432 19.5404 20.8193 19.595 20.9004 19.631L20.8694 19.6986C20.6368 19.5922 20.3934 19.5037 20.1766 19.3736C19.9676 19.2486 19.7851 19.0802 19.5919 18.9326C19.6133 18.9056 19.6331 18.8808 19.6545 18.8566ZM18.8884 21.0831C18.5172 20.677 18.5561 20.1323 18.4497 19.6288C18.4474 19.6175 18.4784 19.6012 18.5336 19.5465C18.5634 19.7099 18.6085 19.8372 18.6062 19.9639C18.5978 20.2653 18.626 20.5474 18.809 20.8026C18.867 20.8831 18.8682 21.0042 18.8884 21.0831Z" fill="#FDD12E"/>
<path fill-rule="evenodd" clip-rule="evenodd" d="M17.6418 21.4148C17.6378 21.4074 17.6254 21.3967 17.6277 21.3922C17.7364 21.0717 17.7105 20.7422 17.7285 20.4139C17.7426 20.1424 17.8862 19.8788 18.0011 19.6078C18.0051 19.6625 18.0214 19.7194 18.0118 19.7706C17.9987 19.8484 17.974 19.9238 17.9386 19.9942C17.7831 20.2781 17.7499 20.5733 17.7786 20.8949C17.7927 21.0684 17.7223 21.2475 17.6908 21.4249C17.675 21.4204 17.6581 21.4181 17.6418 21.4148ZM17.5798 14.667C17.9273 15.0765 17.92 15.6228 18.0186 16.1388C18.0225 16.1579 18.0062 16.1805 17.996 16.2013C17.9752 16.1957 17.9521 16.1906 17.929 16.1838C17.9048 16.0577 17.8597 15.9315 17.862 15.8042C17.8699 15.504 17.8411 15.2218 17.662 14.9633C17.5989 14.8743 17.5989 14.743 17.5798 14.667ZM15.5735 16.1489C15.9435 16.1512 16.2471 16.2999 16.4978 16.564C16.5631 16.6339 16.6741 16.6615 16.7552 16.7195C16.798 16.7505 16.8205 16.8068 16.8526 16.853C16.8042 16.8457 16.7422 16.853 16.7079 16.8282C16.5823 16.733 16.4719 16.617 16.3429 16.5291C16.1904 16.4296 16.0323 16.3391 15.8692 16.2582C15.7757 16.2114 15.6721 16.1844 15.5735 16.1489ZM15.3831 18.5371C15.5093 18.4689 15.6253 18.3619 15.7582 18.34C16.0168 18.2972 16.2838 18.3017 16.5778 18.2848C16.5429 18.3264 16.5231 18.3715 16.4938 18.38C16.4079 18.4077 16.3183 18.4219 16.228 18.4222C15.9379 18.407 15.6535 18.4222 15.3809 18.5326L15.3831 18.5371ZM19.9342 17.5903C20.084 17.5644 20.2355 17.5171 20.3865 17.5204C20.6602 17.5255 20.9098 17.4872 21.1407 17.3233C21.2274 17.2642 21.3497 17.2546 21.442 17.2287C21.01 17.5987 20.4659 17.5734 19.9517 17.6736C19.9449 17.6466 19.9398 17.6179 19.9342 17.5903ZM19.2245 16.475C19.3231 16.3438 19.407 16.1951 19.5247 16.0824C19.7061 15.9078 19.8424 15.7191 19.8841 15.4646C19.897 15.3806 19.9517 15.304 19.9905 15.2128C20.0131 15.8065 19.5196 16.0898 19.3073 16.5347C19.2814 16.5139 19.2521 16.4953 19.2245 16.475Z" fill="#FDD12E"/>
<path fill-rule="evenodd" clip-rule="evenodd" d="M15.0449 18.5332C15.4533 18.162 16.0025 18.2071 16.5105 18.0933C16.5178 18.1203 16.5223 18.1457 16.5302 18.1727C16.3821 18.2003 16.2328 18.2538 16.0869 18.2488C15.8008 18.2403 15.5423 18.2882 15.3023 18.4555C15.2252 18.5084 15.1142 18.5129 15.0449 18.5332ZM17.2405 19.2913C17.1515 19.4153 17.0794 19.5538 16.9701 19.658C16.773 19.8467 16.6215 20.0517 16.5815 20.3289C16.5696 20.4015 16.5201 20.4691 16.4818 20.5542C16.4592 19.9622 16.9538 19.6811 17.1566 19.2361C17.1853 19.2542 17.214 19.2739 17.2405 19.2913ZM15.7732 16.3033C16.0182 16.3557 16.2148 16.4796 16.381 16.6694C16.4868 16.7894 16.6288 16.8795 16.7437 17.0141C16.6879 17.0006 16.6232 16.9967 16.5792 16.9645C16.493 16.902 16.4226 16.8187 16.3393 16.7522C16.1782 16.6249 16.0109 16.5055 15.8481 16.381C15.8211 16.3585 15.7986 16.3286 15.776 16.301L15.7732 16.3033ZM20.7439 19.4536C20.5116 19.4341 20.2962 19.3243 20.1441 19.1477C20.0168 19.0092 19.8602 18.8988 19.7334 18.7365C19.7977 18.7653 19.8686 18.7827 19.9233 18.8227C19.9993 18.8802 20.0776 18.9427 20.1311 19.021C20.2832 19.2418 20.5237 19.3319 20.7394 19.4575L20.7439 19.4536ZM17.1673 16.5213C17.1188 16.4678 17.0597 16.4204 17.0276 16.359C16.9701 16.2503 16.9397 16.1276 16.8817 16.0188C16.7916 15.8493 16.6868 15.6865 16.5956 15.5316C16.9803 15.7248 16.947 16.2008 17.218 16.4807C17.2005 16.4942 17.1842 16.5089 17.1673 16.5213ZM18.4222 16.1501C18.4588 16.0211 18.4898 15.8904 18.5309 15.7631C18.6036 15.5367 18.6835 15.3103 18.7483 15.1216C18.8542 15.4809 18.5185 15.7913 18.5123 16.1749C18.4819 16.1653 18.4509 16.1585 18.4222 16.1501ZM15.914 19.4812C16.1005 19.1443 16.5539 19.1776 16.809 18.9038L16.8423 18.9359C16.8186 18.9725 16.8017 19.0227 16.7673 19.0435C16.6772 19.1021 16.5798 19.146 16.4835 19.1945C16.2903 19.2925 16.0965 19.3888 15.914 19.4812ZM15.3733 17.4298C15.5214 17.418 15.6803 17.3712 15.8188 17.4028C16.0515 17.4563 16.2734 17.5605 16.5026 17.672C16.4266 17.6647 16.346 17.6737 16.2762 17.6483C16.1326 17.601 15.9985 17.5194 15.8538 17.4833C15.6972 17.4444 15.5327 17.4444 15.3733 17.4298ZM19.6028 16.8023C19.685 16.7466 19.7627 16.6812 19.8517 16.6379C20.0877 16.519 20.3299 16.4103 20.54 16.3129C20.3547 16.6238 19.9052 16.5928 19.6523 16.8688C19.6352 16.8471 19.6187 16.8249 19.6028 16.8023ZM19.8455 20.2145C19.4901 20.0095 19.5222 19.5595 19.2524 19.2975L19.2952 19.2621C19.3403 19.3094 19.4011 19.3499 19.4304 19.4057C19.4896 19.5195 19.5262 19.6468 19.5864 19.7617C19.6658 19.9137 19.7554 20.0596 19.8455 20.2145Z" fill="#FDD12E"/>
<path fill-rule="evenodd" clip-rule="evenodd" d="M15.7747 16.3016C15.5257 16.3365 15.1388 16.0267 15.1889 15.8544C15.3297 16.0622 15.5224 16.2165 15.7708 16.3044L15.7747 16.3016ZM15.8395 19.6214C15.6237 19.8951 15.3387 20.0337 15.1912 19.9447C15.4435 19.9211 15.6181 19.7481 15.8395 19.6214ZM20.7375 19.4575C20.9865 19.4862 21.156 19.6299 21.2833 19.8321C21.2985 19.8535 21.2884 19.8923 21.2647 19.9211C21.2456 19.8771 21.2371 19.8163 21.2045 19.7921C21.0546 19.6738 20.898 19.5656 20.7443 19.4536L20.7375 19.4575ZM15.3832 18.5332C15.203 18.683 14.9918 18.6971 14.7749 18.687L14.7665 18.6447C14.9726 18.6092 15.1788 18.5721 15.3855 18.5371L15.3832 18.5332ZM15.372 17.4298C15.1343 17.4501 14.9022 17.4411 14.7051 17.271C14.927 17.3245 15.15 17.378 15.372 17.4298ZM20.0915 20.3784L20.3224 20.762C20.3049 20.7738 20.2869 20.7834 20.2689 20.7958C20.1957 20.6649 20.1217 20.5344 20.047 20.4043C20.0627 20.3953 20.0768 20.3857 20.0915 20.3784ZM16.2005 14.9639L16.4213 15.3672C16.4072 15.3745 16.3915 15.3835 16.3763 15.3908C16.3013 15.2596 16.2242 15.1289 16.1487 14.996C16.1656 14.9864 16.1825 14.9746 16.2005 14.9639Z" fill="#FDD12E"/>
<path fill-rule="evenodd" clip-rule="evenodd" d="M18.5503 18.0577C18.6134 18.078 18.6951 18.0819 18.7317 18.1242C18.7666 18.1659 18.7768 18.2644 18.7508 18.3067C18.717 18.3557 18.6342 18.3793 18.5706 18.3996C18.5182 18.4148 18.4608 18.4092 18.4056 18.4131C18.4044 18.43 18.4044 18.4458 18.4044 18.461C18.4957 18.4734 18.5892 18.4796 18.6782 18.5044C18.7283 18.5196 18.81 18.5793 18.8066 18.6007C18.7903 18.6598 18.7401 18.7134 18.699 18.7646C18.6872 18.777 18.6551 18.7742 18.6337 18.7742C18.3718 18.7753 18.1093 18.7742 17.8474 18.7764C17.7364 18.7764 17.6671 18.7128 17.666 18.6176C17.666 18.5049 17.7573 18.5016 17.8525 18.5049C17.915 18.5078 17.9809 18.4706 18.0445 18.4514L18.0338 18.4041C17.9814 18.4041 17.9262 18.4182 17.8801 18.4007C17.8181 18.3765 17.7471 18.3377 17.7161 18.2842C17.6936 18.2464 17.7122 18.154 17.7483 18.1208C17.7882 18.0819 17.8671 18.0803 17.9336 18.0617L17.8051 18.2701C17.8727 18.2813 17.9403 18.2915 18.0079 18.3011C18.1453 18.3838 18.2805 18.4295 18.4315 18.2903C18.4478 18.2763 18.4901 18.2926 18.5188 18.2881C18.5712 18.2808 18.6235 18.2678 18.6731 18.2582C18.6398 18.2155 18.6056 18.1735 18.5706 18.1321C18.561 18.1214 18.5441 18.1157 18.53 18.1084C18.5374 18.0921 18.5441 18.0741 18.5503 18.0577ZM18.0034 18.5703V18.6204H18.4698V18.5703H18.0034ZM17.2526 17.2371C17.3973 16.9926 17.835 16.9982 18.013 17.1419C18.0404 17.162 18.0631 17.188 18.0794 17.2179C18.1606 17.357 18.1341 17.8871 18.031 18.0589V17.7091C17.9099 17.744 17.8057 17.7958 17.6987 17.7992C17.5939 17.8026 17.4875 17.7603 17.3866 17.713C17.6165 17.7254 17.8372 17.7327 18.0226 17.5643C17.7488 17.6533 17.4835 17.6972 17.2441 17.4528C17.4801 17.2044 17.7398 17.2444 18.0113 17.357C17.9916 17.1239 17.7775 17.0906 17.2526 17.2371ZM17.8001 17.4488C17.7364 17.4027 17.6925 17.3475 17.6649 17.3565C17.6238 17.3683 17.5928 17.4212 17.5584 17.4573C17.5939 17.4871 17.6288 17.5345 17.6649 17.5373C17.6998 17.5395 17.7376 17.4933 17.8001 17.4488ZM19.2245 17.4522C18.9823 17.6944 18.7216 17.6589 18.4478 17.5638C18.6326 17.7288 18.8522 17.7288 19.1226 17.6764C18.8764 17.8685 18.672 17.7986 18.4478 17.695V18.0352L18.4101 18.0425C18.3949 18.0065 18.3701 17.9693 18.3673 17.9327C18.3566 17.7581 18.3425 17.5812 18.347 17.4066C18.3521 17.1898 18.4292 17.1092 18.6461 17.0591C18.8573 17.0106 19.0443 17.0439 19.2336 17.2281C19.0567 17.1943 18.9176 17.1481 18.779 17.1481C18.6483 17.1492 18.481 17.1407 18.4326 17.3615C18.7238 17.2483 18.9874 17.201 19.2245 17.4522ZM18.7615 17.597L18.8365 17.557C18.859 17.5193 18.9063 17.4764 18.9007 17.4443C18.8917 17.4089 18.8393 17.3818 18.8055 17.3508C18.7722 17.3875 18.7193 17.4207 18.712 17.4624C18.7052 17.5035 18.743 17.5525 18.7615 17.597ZM17.9674 19.0738L18.1741 18.9815C18.1763 18.9674 18.1763 18.9516 18.1763 18.9375C18.0766 18.9375 17.9764 18.9477 17.8772 18.9353C17.7997 18.9226 17.7266 18.8904 17.6649 18.8418H18.8027C18.7677 18.9387 18.7266 18.9567 18.6055 18.9415C18.5115 18.9319 18.4168 18.9403 18.3205 18.9403C18.3216 18.9527 18.3233 18.9674 18.3233 18.9815C18.3791 19.0091 18.4354 19.0378 18.5115 19.0738H17.9662" fill="#7B4022"/>
<path fill-rule="evenodd" clip-rule="evenodd" d="M18.0036 18.5715H18.4699V18.6217H18.0036V18.5715ZM17.8002 17.449C17.7377 17.4929 17.6994 17.5391 17.665 17.5369C17.629 17.534 17.5941 17.4867 17.5586 17.4569C17.5935 17.4214 17.6239 17.3679 17.665 17.356C17.6926 17.3482 17.7366 17.4028 17.8002 17.449ZM18.7628 17.596C18.7442 17.5515 18.7059 17.5025 18.7133 17.4614C18.7206 17.4197 18.7735 17.3865 18.8068 17.3499C18.8406 17.3808 18.8929 17.4079 18.902 17.4434C18.9076 17.476 18.8603 17.5183 18.8377 17.556C18.8127 17.5691 18.7877 17.5824 18.7628 17.596Z" fill="#FDD12E"/>
</g>
<defs>
<clipPath id="clip0_823_4514">
<rect width="36.0482" height="36.0482" fill="white" transform="translate(0.0488281)"/>
</clipPath>
</defs>
</svg>
