<svg width="37" height="37" viewBox="0 0 37 37" fill="none" xmlns="http://www.w3.org/2000/svg">
<g clip-path="url(#clip0_823_5028)">
<path d="M36.1927 24.2199C36.1927 27.6417 34.2929 30.4157 30.5602 30.4157H5.77706C2.04438 30.4157 0.144531 27.6417 0.144531 24.2199V11.8284C0.144531 8.40659 2.04438 5.63257 5.77706 5.63257H30.5602C34.2929 5.63257 36.1927 8.40659 36.1927 11.8284V24.2199Z" fill="#128807"/>
<path d="M32.3297 18.4691L18.254 28.3598L4.17773 18.4691L18.254 8.57837L32.3297 18.4691Z" fill="#F9CB38"/>
<path fill-rule="evenodd" clip-rule="evenodd" d="M23.8071 20.1914C23.1661 22.3695 21.1603 24.0277 18.8893 24.253C15.8551 24.5566 13.2004 22.628 12.555 19.6467C12.364 18.7706 12.3883 17.8613 12.6259 16.9966C12.7144 16.9009 12.8366 16.8778 12.9582 16.8609C13.8457 16.7377 14.7428 16.6986 15.6376 16.7443C16.5924 16.7984 17.5392 16.9307 18.4595 17.191C19.4041 17.4585 20.3188 17.8077 21.1823 18.2718C21.8321 18.6171 22.4528 19.0145 23.0382 19.4603C23.2365 19.6141 23.4387 19.765 23.6291 19.9289C23.7141 20.0022 23.7811 20.081 23.8071 20.1914Z" fill="#002776"/>
<path fill-rule="evenodd" clip-rule="evenodd" d="M12.9434 16.1152C13.6705 14.4902 14.8967 13.4082 16.5915 12.9002C20.0049 11.8767 23.5066 14.1326 24.0141 17.6506C24.093 18.1942 24.0963 18.7394 24.013 19.2841C23.9268 19.3162 23.8626 19.2706 23.8034 19.2216C23.1849 18.7161 22.5248 18.2635 21.8304 17.8686C21.2956 17.5652 20.74 17.3001 20.1676 17.0756C20.0663 17.0356 19.939 17.0147 19.904 16.879C19.9407 16.8137 19.9868 16.7568 20.042 16.7038C20.0618 16.6835 20.0905 16.6638 20.064 16.63C20.055 16.6193 20.0364 16.6193 20.0206 16.621C19.9784 16.6255 19.984 16.6548 19.9857 16.6858C19.9891 16.7866 19.9305 16.8514 19.8533 16.9032C19.7165 16.9342 19.5852 16.8931 19.4743 16.8339C19.1566 16.6672 18.8051 16.6103 18.4689 16.5174C17.9445 16.3749 17.406 16.2943 16.8687 16.2104C16.4398 16.1419 16.0081 16.0927 15.5749 16.0628C15.1806 16.0352 14.779 16.0392 14.3819 16.0662C13.9488 16.0966 13.5145 16.1271 13.0836 16.1789C13.0566 16.1828 13.029 16.1789 13.0041 16.1676C12.9793 16.1563 12.9582 16.1382 12.9434 16.1152Z" fill="#002776"/>
<path fill-rule="evenodd" clip-rule="evenodd" d="M19.909 16.8441C19.9067 16.9128 19.9681 16.9038 20.0053 16.9184C21.4598 17.4843 22.8125 18.2833 24.01 19.2841C23.9755 19.5931 23.9071 19.8974 23.8061 20.1915C23.1015 19.6068 22.38 19.0498 21.5819 18.5947C19.059 17.1578 16.3577 16.5884 13.4699 16.8936C13.1883 16.9224 12.9066 16.9607 12.625 16.995C12.6977 16.6903 12.79 16.3912 12.9415 16.1141C15.0498 15.8297 17.1214 15.9913 19.1542 16.6205C19.4066 16.6988 19.6471 16.8249 19.9163 16.8486L19.909 16.8424" fill="#FEFEFE"/>
<path fill-rule="evenodd" clip-rule="evenodd" d="M22.5334 20.4743C22.3639 20.4563 22.5481 20.6641 22.3769 20.6596C22.2276 20.6573 22.2197 20.5379 22.1465 20.4715C22.2028 20.4129 22.3025 20.4011 22.334 20.3098C22.3555 20.4061 22.4461 20.4264 22.5334 20.4743Z" fill="#D9DFEA"/>
<path fill-rule="evenodd" clip-rule="evenodd" d="M16.1389 21.5163C15.9795 21.5349 16.113 21.7084 15.9795 21.7112C15.8449 21.714 15.7756 21.6143 15.7485 21.5112C15.739 21.4819 15.8685 21.4166 15.9322 21.3682C15.9401 21.4701 16.0459 21.4656 16.1389 21.5163Z" fill="#E9ECF3"/>
<path fill-rule="evenodd" clip-rule="evenodd" d="M18.2471 21.2026C18.0258 21.3457 18.2043 21.0224 18.0742 21.0539C18.1165 20.9863 18.2359 21.0021 18.2438 20.8984C18.3001 20.957 18.348 21.0246 18.4375 21.037C18.3097 21.0195 18.4488 21.3034 18.2471 21.2026Z" fill="#EDEFF5"/>
<path fill-rule="evenodd" clip-rule="evenodd" d="M13.6745 17.4072C13.6216 17.508 13.5816 17.6207 13.4211 17.5531C13.3388 17.5187 13.4267 17.4061 13.3281 17.3954L13.5106 17.2349C13.523 17.2613 13.5377 17.2867 13.55 17.3132C13.5647 17.3802 13.6982 17.2912 13.6745 17.4072Z" fill="#F0F2F6"/>
<path fill-rule="evenodd" clip-rule="evenodd" d="M14.1856 19.8546C14.1017 19.8811 14.1619 20.1019 13.9817 20.0056C13.9637 19.9966 13.8848 20.04 13.8994 20.0146C13.9468 19.9222 13.8409 19.8772 13.8572 19.8034C13.9558 19.8462 13.9501 19.666 14.051 19.7144C14.0583 19.72 14.0583 19.7426 14.0633 19.7572C14.0741 19.827 14.2104 19.7397 14.1856 19.8546Z" fill="#ECEFF4"/>
<path fill-rule="evenodd" clip-rule="evenodd" d="M13.2993 20.507C13.1264 20.5673 13.2554 20.3583 13.1562 20.36C13.2024 20.3211 13.2543 20.2485 13.3004 20.2513C13.3556 20.2541 13.4063 20.3223 13.457 20.3611C13.3816 20.3865 13.461 20.5909 13.2993 20.507Z" fill="#D9DFEA"/>
<path fill-rule="evenodd" clip-rule="evenodd" d="M19.9835 22.5004C19.8004 22.5837 19.9784 22.3376 19.8562 22.3697C19.8438 22.2756 19.9964 22.3325 19.9773 22.2334L20.1423 22.3658C20.0753 22.3962 20.1423 22.5877 19.9835 22.5004Z" fill="#D8DEEA"/>
<path fill-rule="evenodd" clip-rule="evenodd" d="M21.1539 22.3646C21.0024 22.4277 21.0953 22.2238 21.0137 22.2035C21.0689 22.168 21.1269 22.1303 21.181 22.0937C21.1855 22.177 21.2998 22.1466 21.3122 22.2204C21.2271 22.2255 21.3156 22.4091 21.1539 22.3646ZM22.2072 21.6065C22.0348 21.6938 22.1621 21.4645 22.0636 21.4741C22.0833 21.4009 22.1965 21.4285 22.2033 21.344L22.3649 21.4651C22.2663 21.4623 22.3874 21.7039 22.2072 21.6065Z" fill="#DCE1EC"/>
<path fill-rule="evenodd" clip-rule="evenodd" d="M15.2299 20.5549C15.0496 20.6568 15.1673 20.4287 15.084 20.4242C15.0924 20.3403 15.2197 20.3763 15.2254 20.2874C15.2423 20.3696 15.3515 20.3459 15.3752 20.4197C15.2676 20.4039 15.4208 20.6625 15.2299 20.5549Z" fill="#D4DAE7"/>
<path fill-rule="evenodd" clip-rule="evenodd" d="M15.9616 18.8438C15.8596 18.837 15.9903 18.6765 15.8652 18.6866C15.8866 18.5965 15.983 18.6151 16.0359 18.5684C16.0629 18.6252 16.1395 18.6382 16.1435 18.7199C16.1525 18.8691 16.0201 18.792 15.9616 18.8438Z" fill="#F2F4F7"/>
<path fill-rule="evenodd" clip-rule="evenodd" d="M18.9291 20.0333C18.7731 20.1229 18.8553 19.9229 18.7832 19.9009C18.8322 19.8604 18.8795 19.8193 18.9291 19.7776C18.9325 19.8609 19.0919 19.8424 19.0468 19.9066C19.0198 19.9449 19.1071 20.12 18.9291 20.0333Z" fill="#E6E9F1"/>
<path fill-rule="evenodd" clip-rule="evenodd" d="M18.2309 19.5314C18.0529 19.5495 18.2366 19.3878 18.1211 19.3918C18.1662 19.3495 18.2095 19.2774 18.2602 19.2729C18.3041 19.2684 18.3548 19.3399 18.4027 19.3794C18.3402 19.4396 18.3498 19.5951 18.2309 19.5314Z" fill="#EAEDF3"/>
<path fill-rule="evenodd" clip-rule="evenodd" d="M22.5527 20.8459C22.5893 20.9428 22.6614 20.9558 22.7177 20.9901C22.6603 21.0549 22.6377 21.154 22.5183 21.154C22.3961 21.1552 22.4789 21.0622 22.4513 21.0189C22.3831 20.9107 22.6349 21.002 22.5527 20.8459Z" fill="#E4E8F0"/>
<path fill-rule="evenodd" clip-rule="evenodd" d="M21.2781 22.8084C21.2353 22.872 21.2646 22.9329 21.1508 22.9351C21.0207 22.9374 21.0624 22.8422 21.0568 22.8129C21.0461 22.7644 21.1204 22.7183 21.1632 22.7278C21.2004 22.7346 21.2725 22.7554 21.2781 22.8084Z" fill="#CED5E4"/>
<path fill-rule="evenodd" clip-rule="evenodd" d="M15.1908 21.0037C15.0979 21.0144 15.175 21.1361 15.0573 21.1321C14.9497 21.1287 14.9655 21.0561 14.9537 21.0121C14.9351 20.9507 15.0258 20.9524 15.046 20.9062C15.0888 20.9361 15.1322 20.966 15.1908 21.0037Z" fill="#DAE0EB"/>
<path fill-rule="evenodd" clip-rule="evenodd" d="M21.0254 21.6469C21.0654 21.617 21.1054 21.5894 21.1476 21.5613C21.151 21.6238 21.2856 21.5878 21.2406 21.6677C21.222 21.6998 21.2676 21.7877 21.151 21.7798C21.0462 21.7725 21.071 21.6993 21.0254 21.6469Z" fill="#D8DEE9"/>
<path fill-rule="evenodd" clip-rule="evenodd" d="M20.596 21.84C20.5757 21.951 20.5126 21.969 20.4433 21.982C20.3256 22.0017 20.414 21.9133 20.3949 21.8795C20.3453 21.795 20.4704 21.8113 20.485 21.7561C20.5177 21.7989 20.5926 21.7978 20.596 21.84Z" fill="#CBD2E3"/>
<path fill-rule="evenodd" clip-rule="evenodd" d="M19.9378 18.1874C19.8983 18.206 19.9507 18.3001 19.8662 18.273C19.802 18.2511 19.7232 18.2207 19.7288 18.1418C19.7311 18.1114 19.8077 18.086 19.8505 18.0596C19.8578 18.1165 19.9794 18.0979 19.9378 18.1874Z" fill="#D1D8E6"/>
<path fill-rule="evenodd" clip-rule="evenodd" d="M23.1239 20.6579C23.018 20.6996 23.0659 20.6123 23.0473 20.587C22.9764 20.4906 23.1166 20.5047 23.1239 20.4473C23.1673 20.476 23.2518 20.5087 23.2484 20.5334C23.246 20.5656 23.232 20.5959 23.2092 20.6187C23.1864 20.6416 23.1561 20.6555 23.1239 20.6579Z" fill="#DADFEA"/>
<path fill-rule="evenodd" clip-rule="evenodd" d="M17.6797 19.7983C17.6797 19.8637 17.8115 19.8378 17.767 19.9194C17.749 19.9527 17.7873 20.0417 17.6961 20.0231C17.6268 20.009 17.5569 19.9684 17.5547 19.8997C17.5547 19.8676 17.6347 19.8333 17.6797 19.7983Z" fill="#CAD2E2"/>
<path fill-rule="evenodd" clip-rule="evenodd" d="M19.4834 21.8362C19.4315 21.812 19.4293 21.7438 19.4327 21.7112C19.4383 21.6678 19.4963 21.6092 19.5459 21.6329C19.5763 21.6475 19.6625 21.6391 19.6416 21.7179C19.6225 21.7934 19.547 21.8041 19.4834 21.8362Z" fill="#D0D7E5"/>
<path fill-rule="evenodd" clip-rule="evenodd" d="M21.6621 21.737C21.6644 21.7364 21.7038 21.6818 21.7483 21.6807C21.7804 21.6796 21.8131 21.746 21.8474 21.7832C21.8012 21.7961 21.8407 21.8812 21.7494 21.8801C21.6672 21.8784 21.6672 21.8412 21.6621 21.737Z" fill="#EFF2F6"/>
<path fill-rule="evenodd" clip-rule="evenodd" d="M18.0379 20.3112C18.0227 20.3724 18.0227 20.4103 17.9683 20.4092C17.9128 20.4081 17.8856 20.3877 17.8868 20.331C17.8868 20.2863 17.9162 20.2552 17.9496 20.258C17.9881 20.2608 18.043 20.2716 18.0379 20.3112Z" fill="#CCD4E3"/>
<path fill-rule="evenodd" clip-rule="evenodd" d="M14.5835 19.4346C14.6107 19.464 14.6418 19.4872 14.6537 19.5172C14.6639 19.5422 14.648 19.5801 14.6129 19.5841C14.5738 19.5875 14.5319 19.5863 14.5195 19.5376C14.5082 19.4901 14.5495 19.4731 14.5835 19.4346Z" fill="#E0E5EE"/>
<path fill-rule="evenodd" clip-rule="evenodd" d="M14.1854 19.8551C14.1701 19.79 14.0693 19.8313 14.0625 19.7566C14.084 19.8132 14.2522 19.6869 14.1854 19.8551Z" fill="#7085B1"/>
<path fill-rule="evenodd" clip-rule="evenodd" d="M13.6759 17.4078C13.6635 17.3381 13.5564 17.3931 13.5508 17.3132C13.5808 17.3608 13.7326 17.2481 13.6759 17.4078Z" fill="#5C75A7"/>
<path fill-rule="evenodd" clip-rule="evenodd" d="M19.9208 16.8504C19.9315 16.8076 19.9658 16.7378 19.9523 16.7248C19.7687 16.5615 20.0137 16.5339 20.0503 16.5006C20.1173 16.4359 20.1066 16.709 20.2835 16.5361C20.1883 16.7473 20.061 16.8082 19.9146 16.8442L19.9208 16.8504Z" fill="#E7EAF2"/>
<path fill-rule="evenodd" clip-rule="evenodd" d="M14.4913 16.6752C14.3122 16.6578 14.4716 16.4246 14.4327 16.2894C14.3843 16.1148 14.5116 16.117 14.6355 16.1165C14.8276 16.1153 14.9363 16.1964 14.9363 16.3992C14.9357 16.5986 14.8433 16.6775 14.4913 16.6752Z" fill="#15A24A"/>
<path fill-rule="evenodd" clip-rule="evenodd" d="M21.3347 17.8005C21.2952 17.9211 21.1493 17.9965 21.1246 18.1452C21.1223 18.1649 21.066 18.161 21.0553 18.1035C21.0102 17.8343 21.008 17.8349 20.8091 17.9791C20.7934 17.9909 20.7658 18.0016 20.7506 17.9965C20.7213 17.9836 20.7094 17.9543 20.7269 17.9211C20.7928 17.7926 20.8548 17.6608 20.9285 17.5363C20.9781 17.4541 21.0384 17.5228 21.0868 17.5465C21.1933 17.5989 21.3245 17.6287 21.3347 17.8005Z" fill="#13A248"/>
<path fill-rule="evenodd" clip-rule="evenodd" d="M21.839 18.2386C21.7353 18.2803 21.6852 18.202 21.6187 18.1739C21.5737 18.1547 21.5314 18.1367 21.501 18.1868C21.4678 18.2398 21.501 18.2702 21.5466 18.2938C21.5816 18.3113 21.6187 18.3248 21.6446 18.3524C21.6903 18.4003 21.8333 18.3873 21.7753 18.4893C21.7297 18.5704 21.6531 18.4758 21.6024 18.4459C21.5151 18.3924 21.3422 18.3631 21.3608 18.2702C21.3895 18.1209 21.4745 17.9587 21.5878 17.8562C21.6784 17.7739 21.7787 17.9294 21.8806 17.9683C21.9246 17.9846 21.9995 17.9992 21.9865 18.0685C21.9741 18.1401 21.9212 18.0984 21.8806 18.0888C21.7855 18.0668 21.6931 17.9057 21.6182 18.0173C21.5731 18.0837 21.7584 18.1113 21.817 18.1846C21.826 18.1953 21.8283 18.2099 21.839 18.2386ZM23.0528 19.0351C23.0697 19.1669 23.0162 19.2564 22.8782 19.2339C22.7351 19.2102 22.6264 19.1229 22.6016 18.9664C22.5994 18.9506 22.6185 18.9185 22.6343 18.914C22.6434 18.911 22.653 18.91 22.6625 18.9112C22.6719 18.9123 22.6811 18.9155 22.6892 18.9206C22.6973 18.9256 22.7042 18.9324 22.7094 18.9404C22.7146 18.9484 22.718 18.9575 22.7193 18.9669C22.7374 19.0745 22.7937 19.1224 22.9069 19.1246C22.9289 18.9483 22.6106 18.8678 22.7937 18.6847C22.8855 18.5929 22.9976 18.669 23.0776 18.7427C23.1513 18.8098 23.2415 18.8836 23.1068 18.9793C23.0877 18.9692 23.0618 18.9528 23.0477 18.9641C23.019 18.9832 23.0471 19.0108 23.0528 19.0351Z" fill="#11A147"/>
<path fill-rule="evenodd" clip-rule="evenodd" d="M19.1635 17.3579C19.0964 17.3201 19.0998 17.2841 19.1105 17.2447C19.1319 17.1607 19.0886 17.1168 19.012 17.0931C18.9353 17.0684 18.8762 17.0717 18.8554 17.1675C18.848 17.2103 18.8255 17.2402 18.7788 17.2244C18.7247 17.2047 18.7517 17.1607 18.7619 17.1286C18.7833 17.0548 18.8024 16.9805 18.8362 16.9101C18.8666 16.8397 18.8452 16.7107 18.9562 16.7191C19.0739 16.7276 19.2012 16.7558 19.2908 16.8532C19.3308 16.896 19.3471 16.9698 19.3144 17.0019C19.2192 17.0999 19.2271 17.2385 19.1635 17.3579Z" fill="#0FA046"/>
<path fill-rule="evenodd" clip-rule="evenodd" d="M15.6874 16.6408C15.5055 16.7095 15.3619 16.6695 15.2216 16.6724C15.158 16.674 15.1523 16.6262 15.1523 16.5777C15.1568 16.5242 15.1568 16.4701 15.1568 16.4166C15.1636 16.1198 15.2689 16.0438 15.5607 16.1266C15.5934 16.1356 15.6244 16.1412 15.6266 16.1778C15.6266 16.2285 15.59 16.2375 15.5449 16.2364C15.5387 16.2353 15.5314 16.2336 15.5235 16.2347C15.4362 16.2561 15.2796 16.1575 15.2768 16.2882C15.2734 16.3885 15.4441 16.3175 15.5314 16.3513C15.5438 16.3564 15.5573 16.3676 15.5765 16.3817C15.5213 16.4814 15.4295 16.4257 15.3585 16.4375C15.3163 16.4442 15.2611 16.4257 15.2549 16.4944C15.247 16.5755 15.3033 16.5715 15.3585 16.5772C15.4526 16.5884 15.5545 16.5529 15.6874 16.6408Z" fill="#0B9F43"/>
<path fill-rule="evenodd" clip-rule="evenodd" d="M14.1914 16.6836C14.0933 16.6622 14.1069 16.6059 14.09 16.5664C14.0607 16.4938 14.0027 16.4938 13.939 16.4989C13.8664 16.5056 13.8269 16.5338 13.8331 16.6143C13.8376 16.6537 13.8534 16.7174 13.7802 16.7084C13.7171 16.7005 13.7351 16.6391 13.7317 16.5974C13.7261 16.5293 13.7193 16.4594 13.7261 16.3918C13.7351 16.3164 13.663 16.2009 13.7717 16.1739C13.8838 16.1446 14.0134 16.1237 14.13 16.1795C14.1807 16.2037 14.2206 16.2629 14.2021 16.3107C14.1593 16.4313 14.193 16.5535 14.1914 16.6836Z" fill="#079D3F"/>
<path fill-rule="evenodd" clip-rule="evenodd" d="M13.002 16.4921C13.02 16.3394 13.087 16.2155 13.2543 16.2211C13.4148 16.2262 13.5004 16.3377 13.5004 16.4983C13.5004 16.6577 13.4261 16.7675 13.2565 16.7664C13.0842 16.7652 13.0256 16.6402 13.002 16.4921Z" fill="#15A24A"/>
<path fill-rule="evenodd" clip-rule="evenodd" d="M23.7259 19.3533C23.7101 19.5048 23.6352 19.6191 23.4623 19.6344C23.3029 19.6473 23.2184 19.5561 23.206 19.4062C23.1919 19.2547 23.3406 19.11 23.4921 19.1111C23.6251 19.1122 23.7225 19.2085 23.7259 19.3533Z" fill="#11A147"/>
<path fill-rule="evenodd" clip-rule="evenodd" d="M20.563 17.5905C20.6903 17.693 20.536 17.7606 20.5304 17.8468C20.4245 17.7978 20.2921 17.8175 20.2065 17.7245C20.1153 17.6254 20.1322 17.5133 20.1919 17.404C20.2578 17.2886 20.3592 17.239 20.4836 17.283C20.5974 17.3235 20.6825 17.4001 20.6273 17.5443C20.54 17.5601 20.4684 17.4452 20.3456 17.5223C20.4273 17.5601 20.5253 17.5077 20.563 17.5905Z" fill="#0C9F43"/>
<path fill-rule="evenodd" clip-rule="evenodd" d="M17.498 16.4301C17.4237 16.5174 17.369 16.4836 17.3178 16.4847C17.2682 16.4847 17.2153 16.4436 17.1539 16.4948C17.2091 16.585 17.3426 16.527 17.3944 16.6165C17.3871 16.6295 17.3837 16.6469 17.3741 16.6559C17.2998 16.7145 17.1809 16.5726 17.1347 16.6897C17.0925 16.7906 17.2034 16.7556 17.2513 16.7725C17.3054 16.7939 17.3724 16.786 17.4378 16.8593C17.2862 16.9257 17.1054 16.8948 17.0429 16.8215C16.9443 16.7061 17.0136 16.501 17.0885 16.3985C17.177 16.2774 17.3386 16.3957 17.498 16.4301Z" fill="#19A44D"/>
<path fill-rule="evenodd" clip-rule="evenodd" d="M18.4606 16.92C18.3328 16.9065 18.1874 16.8163 18.1508 17.027C18.1497 17.0337 18.1052 17.0433 18.0917 17.0343C18.0765 17.0259 18.068 16.9943 18.0708 16.9763C18.1041 16.8428 18.121 16.6997 18.1801 16.5798C18.2488 16.4446 18.3654 16.5589 18.4617 16.5719C18.5766 16.5871 18.6403 16.6569 18.6279 16.778C18.6166 16.8822 18.5378 16.9104 18.4606 16.92Z" fill="#0D9F44"/>
<path fill-rule="evenodd" clip-rule="evenodd" d="M19.983 17.243C19.9706 17.4125 19.8872 17.5297 19.7177 17.5348C19.5661 17.5404 19.4811 17.434 19.4845 17.283C19.489 17.1197 19.5684 17.0014 19.7447 16.9963C19.9063 16.9907 19.9689 17.0994 19.983 17.243Z" fill="#0FA046"/>
<path fill-rule="evenodd" clip-rule="evenodd" d="M16.1859 16.6312C16.1673 16.6711 16.1521 16.728 16.0986 16.7151C16.0056 16.6931 16.0473 16.6036 16.0248 16.545C15.9561 16.4779 15.9741 16.5703 15.9527 16.5872C15.9448 16.6289 15.964 16.6925 15.9076 16.701C15.8384 16.7094 15.8547 16.643 15.8564 16.6036C15.862 16.5213 15.8631 16.4351 15.8857 16.3563C15.9054 16.2887 15.8338 16.1642 15.9685 16.1631C16.0873 16.1625 16.0614 16.2836 16.0766 16.3563C16.0924 16.4396 16.1008 16.4751 16.169 16.3923C16.2394 16.3737 16.254 16.425 16.2704 16.4746C16.2794 16.5467 16.2473 16.5968 16.1859 16.6312Z" fill="#0EA044"/>
<path fill-rule="evenodd" clip-rule="evenodd" d="M22.1854 18.7C22.2271 18.7 22.2693 18.7552 22.3099 18.7079C22.3409 18.6724 22.3133 18.6375 22.2857 18.6087C22.2654 18.5868 22.244 18.5659 22.2248 18.5423C22.1674 18.473 22.0868 18.4065 22.1663 18.3063C22.2384 18.2145 22.3223 18.237 22.4056 18.295C22.4208 18.3243 22.4158 18.3525 22.4 18.3789C22.3386 18.4753 22.453 18.5338 22.4507 18.6161C22.4682 18.6932 22.4794 18.771 22.3944 18.8155C22.2885 18.8718 22.2068 18.82 22.1291 18.7524C22.1206 18.7079 22.137 18.6859 22.1854 18.7Z" fill="#10A146"/>
<path fill-rule="evenodd" clip-rule="evenodd" d="M20.5629 17.5904C20.5195 17.6208 20.4322 17.5222 20.435 17.5966C20.4407 17.7284 20.3748 17.7166 20.3134 17.6777C20.2306 17.6264 20.2261 17.5386 20.2785 17.4575C20.3292 17.378 20.4007 17.3319 20.4874 17.3966C20.5404 17.4355 20.5804 17.4941 20.626 17.5442L20.5629 17.5904Z" fill="#ECF7F0"/>
<path fill-rule="evenodd" clip-rule="evenodd" d="M16.222 16.4976C16.2056 16.4628 16.1875 16.4288 16.168 16.3956C16.1877 16.3455 16.2057 16.2948 16.2294 16.2463C16.2508 16.2007 16.2879 16.1754 16.3403 16.1923C16.3989 16.212 16.3944 16.257 16.391 16.3044C16.3786 16.4424 16.3674 16.5798 16.3567 16.7178C16.2744 16.7702 16.2536 16.7223 16.2401 16.6513C16.2299 16.6001 16.2564 16.5449 16.222 16.4976Z" fill="#17A34C"/>
<path fill-rule="evenodd" clip-rule="evenodd" d="M22.4522 18.6156C22.4015 18.5637 22.3475 18.5147 22.3001 18.4595C22.2449 18.3942 22.2663 18.3542 22.3486 18.3435C22.4674 18.37 22.5401 18.4274 22.5052 18.5637C22.4888 18.5806 22.4708 18.5987 22.4522 18.6156Z" fill="#D7EFE0"/>
<path fill-rule="evenodd" clip-rule="evenodd" d="M22.5042 18.5637C22.4496 18.4927 22.435 18.3913 22.3477 18.3434L22.4062 18.2944C22.5009 18.3615 22.6738 18.3998 22.5042 18.5637Z" fill="#2BAB5B"/>
<path fill-rule="evenodd" clip-rule="evenodd" d="M23.0532 19.0351C23.0459 19.0306 23.0363 19.0283 23.0329 19.0222C22.9878 18.9388 22.8386 18.8639 22.8893 18.7901C22.9529 18.7011 23.0194 18.8064 23.0543 18.8825C23.0701 18.9146 23.0892 18.9461 23.1073 18.9793C23.0887 18.9979 23.0701 19.0165 23.0532 19.0351Z" fill="#E6F5EC"/>
<path fill-rule="evenodd" clip-rule="evenodd" d="M22.1863 18.7C22.1683 18.7175 22.1508 18.7355 22.13 18.753C22.1063 18.7361 22.0737 18.7242 22.0585 18.7C22.0297 18.6454 21.9475 18.5727 22.0427 18.5299C22.1227 18.4916 22.1227 18.5936 22.1486 18.6431C22.1593 18.664 22.1728 18.6814 22.1863 18.7Z" fill="#29AA59"/>
<path fill-rule="evenodd" clip-rule="evenodd" d="M16.2213 16.4978C16.3036 16.5299 16.2602 16.5986 16.2613 16.6499C16.2658 16.7203 16.2906 16.7439 16.3565 16.7192C16.2191 16.8521 16.2365 16.6747 16.1836 16.6352C16.1977 16.5885 16.2084 16.5429 16.2213 16.4978Z" fill="#DDF1E4"/>
<path fill-rule="evenodd" clip-rule="evenodd" d="M15.9492 16.5888V16.4065C16.0274 16.4314 16.0296 16.4863 16.0217 16.5464C15.9979 16.5605 15.973 16.5741 15.9492 16.5888Z" fill="#6FC690"/>
<path fill-rule="evenodd" clip-rule="evenodd" d="M14.5469 16.402C14.5548 16.3197 14.5153 16.2127 14.6556 16.2217C14.7581 16.2279 14.8324 16.269 14.8381 16.3862C14.8437 16.5124 14.7699 16.5636 14.6533 16.5721C14.5052 16.5839 14.5655 16.4673 14.5469 16.402Z" fill="#F5FBF7"/>
<path fill-rule="evenodd" clip-rule="evenodd" d="M21.0422 17.6411C21.1008 17.6732 21.1904 17.6794 21.2095 17.7661C21.2191 17.8112 21.1802 17.841 21.1403 17.8281C21.0659 17.8055 20.9673 17.8044 20.9572 17.6996C20.9544 17.6692 20.9871 17.6309 21.0422 17.6411Z" fill="#EFF8F3"/>
<path fill-rule="evenodd" clip-rule="evenodd" d="M19.2144 16.9483C19.1992 17.0069 19.1581 17.0271 19.1107 17.0097C19.0471 16.9866 18.9446 17.0119 18.9435 16.9004C18.9412 16.8424 18.9806 16.8249 19.0336 16.8424C19.1034 16.8649 19.1879 16.8621 19.2144 16.9483Z" fill="#DEF2E5"/>
<path fill-rule="evenodd" clip-rule="evenodd" d="M13.9533 16.2549C14.0085 16.2616 14.0958 16.2324 14.0902 16.3264C14.0846 16.4087 14.0012 16.3957 13.9415 16.3968C13.8936 16.3985 13.8249 16.4233 13.8204 16.3371C13.817 16.2346 13.897 16.2667 13.9533 16.2549Z" fill="#F3FAF5"/>
<path fill-rule="evenodd" clip-rule="evenodd" d="M13.2422 16.3333C13.3442 16.34 13.3949 16.4008 13.3988 16.4966C13.4044 16.5822 13.3622 16.6554 13.2743 16.6633C13.1729 16.6729 13.1273 16.5957 13.1217 16.5017C13.1161 16.4149 13.1499 16.3518 13.2422 16.3333Z" fill="#F3FAF6"/>
<path fill-rule="evenodd" clip-rule="evenodd" d="M23.6144 19.373C23.5997 19.4665 23.5434 19.5324 23.4347 19.5324C23.3474 19.5312 23.3147 19.4676 23.3237 19.3904C23.3322 19.2857 23.3947 19.2181 23.5011 19.2198C23.5851 19.222 23.6177 19.2823 23.6144 19.373Z" fill="#F9FCFA"/>
<path fill-rule="evenodd" clip-rule="evenodd" d="M18.3265 16.6429C18.3833 16.6779 18.4977 16.6418 18.514 16.7545C18.5191 16.7973 18.4718 16.8192 18.434 16.8108C18.3603 16.7945 18.2572 16.8209 18.2482 16.7021C18.2465 16.6655 18.2628 16.626 18.3265 16.6429Z" fill="#E7F5EC"/>
<path fill-rule="evenodd" clip-rule="evenodd" d="M19.8702 17.2564C19.8595 17.3538 19.8116 17.422 19.7131 17.422C19.6162 17.4231 19.5818 17.3555 19.5863 17.2665C19.5942 17.1685 19.65 17.1032 19.7452 17.0992C19.8398 17.0959 19.8702 17.1713 19.8702 17.2564Z" fill="#F5FBF7"/>
</g>
<defs>
<clipPath id="clip0_823_5028">
<rect width="36.0482" height="36.0482" fill="white" transform="translate(0.144531)"/>
</clipPath>
</defs>
</svg>
