<svg width="37" height="37" viewBox="0 0 37 37" fill="none" xmlns="http://www.w3.org/2000/svg">
<g clip-path="url(#clip0_823_5023)">
<path d="M0.0957031 18.0242V24.22C0.0957031 27.6417 1.99556 30.4157 5.72823 30.4157H30.5114C34.244 30.4157 36.1439 27.6417 36.1439 24.22V18.0242H0.0957031Z" fill="#EC1C24"/>
<path d="M30.5116 5.63257H13.0508V18.0241H36.1442V11.8284C36.1442 8.40659 34.2443 5.63257 30.5116 5.63257Z" fill="#E6E7E8"/>
<path d="M13.0505 5.63257H5.72823C1.99556 5.63257 0.0957031 8.40659 0.0957031 11.8284V18.0241H13.0505V5.63257Z" fill="#2B3990"/>
<path d="M6.58486 7.88379L7.85049 10.4488L10.6837 10.8651L8.63454 12.8635L9.11893 15.6798L6.58429 14.3482L4.04966 15.6798L4.53405 12.8635L2.48438 10.8651L5.31754 10.4488L6.58486 7.88379Z" fill="#E6E7E8"/>
</g>
<defs>
<clipPath id="clip0_823_5023">
<rect width="36.0482" height="36.0482" fill="white" transform="translate(0.0957031)"/>
</clipPath>
</defs>
</svg>
