<svg width="24" height="24" viewBox="0 0 24 24" fill="none" xmlns="http://www.w3.org/2000/svg">
<path d="M14.9657 3.78321C11.5375 2.52033 7.5173 3.63461 5.2238 6.47437C2.93872 9.30371 2.60656 13.351 4.48643 16.4856C6.37917 19.6418 10.1214 21.2788 13.7251 20.5685C17.7763 19.77 20.6975 16.0963 20.7307 12.002C20.701 8.34271 18.4041 5.04987 14.9657 3.78321ZM14.5991 19.1309C11.5746 20.2181 8.16996 19.2799 6.11828 16.8116C4.09523 14.3778 3.86105 10.8023 5.48162 8.09999C7.1099 5.38486 10.3719 3.92329 13.4825 4.55983C17.0079 5.2812 19.5491 8.41503 19.5781 12.002C19.5527 15.1436 17.5813 18.059 14.5991 19.1309Z" fill="#304FFF"/>
<path d="M15.6234 8.06863C14.1066 10.194 12.5899 12.3194 11.0732 14.4447C10.9824 14.5719 10.8917 14.699 10.8009 14.8262C9.95663 14.1695 9.11231 13.5128 8.26798 12.8561C8.0205 12.6636 7.69502 12.6193 7.453 12.8561C7.25176 13.053 7.20774 13.4803 7.453 13.6711C8.47349 14.4648 9.49399 15.2585 10.5145 16.0522C10.8252 16.2939 11.1845 16.265 11.4196 15.9356C12.9363 13.8102 14.4531 11.6848 15.9698 9.55946L16.6186 8.65032C17.0502 8.04553 16.0511 7.46933 15.6234 8.06863Z" fill="#304FFF"/>
</svg>
