<svg width="20" height="20" viewBox="0 0 20 20" fill="none" xmlns="http://www.w3.org/2000/svg">
<path d="M12.0893 3.74517C9.38733 2.7498 6.21867 3.62805 4.41099 5.86628C2.60994 8.0963 2.34814 11.2863 3.82981 13.7569C5.32163 16.2445 8.27118 17.5348 11.1115 16.975C14.3046 16.3456 16.607 13.4501 16.6332 10.223C16.6098 7.33887 14.7994 4.74352 12.0893 3.74517ZM11.8004 15.8419C9.41654 16.6988 6.73308 15.9593 5.116 14.0139C3.52148 12.0956 3.3369 9.27746 4.6142 7.14756C5.89757 5.00756 8.46862 3.85558 10.9203 4.35729C13.6989 4.92585 15.7018 7.39587 15.7247 10.223C15.7047 12.6992 14.1509 14.997 11.8004 15.8419Z" fill="#FFD700"/>
<path d="M12.6072 7.12272C11.4117 8.79786 10.2162 10.473 9.02077 12.1482C8.94925 12.2484 8.87774 12.3487 8.80622 12.4489C8.14075 11.9313 7.47527 11.4137 6.80979 10.8961C6.61474 10.7444 6.3582 10.7094 6.16745 10.8961C6.00883 11.0513 5.97414 11.3881 6.16745 11.5384C6.97178 12.164 7.77611 12.7896 8.58043 13.4152C8.82532 13.6057 9.1085 13.5829 9.2938 13.3233C10.4893 11.6481 11.6847 9.97293 12.8802 8.29775L13.3916 7.58119C13.7317 7.10451 12.9442 6.65036 12.6072 7.12272Z" fill="#FFD700"/>
</svg>
