<svg width="20" height="20" viewBox="0 0 20 20" fill="none" xmlns="http://www.w3.org/2000/svg">
<path d="M11.9468 3.54302C9.24475 2.54765 6.0761 3.4259 4.26842 5.66413C2.46737 7.89416 2.20556 11.0841 3.68723 13.5548C5.17905 16.0424 8.1286 17.3327 10.969 16.7728C14.162 16.1434 16.4644 13.248 16.4906 10.0209C16.4672 7.13672 14.6569 4.54137 11.9468 3.54302ZM11.6578 15.6397C9.27396 16.4966 6.59051 15.7572 4.97342 13.8117C3.3789 11.8934 3.19432 9.07531 4.47162 6.94541C5.75499 4.80541 8.32604 3.65343 10.7777 4.15514C13.5563 4.72371 15.5593 7.19372 15.5822 10.0209C15.5621 12.497 14.0083 14.7949 11.6578 15.6397Z" fill="#BBDEFA"/>
<path d="M12.4646 6.92069C11.2691 8.59584 10.0736 10.271 8.87819 11.9462C8.80668 12.0464 8.73516 12.1466 8.66364 12.2468C7.99817 11.7292 7.3327 11.2117 6.66722 10.694C6.47216 10.5423 6.21563 10.5074 6.02487 10.694C5.86625 10.8492 5.83156 11.1861 6.02487 11.3364C6.8292 11.962 7.63353 12.5876 8.43785 13.2132C8.68274 13.4036 8.96592 13.3809 9.15122 13.1213C10.3467 11.4461 11.5422 9.77091 12.7376 8.09572L13.249 7.37916C13.5892 6.90248 12.8017 6.44834 12.4646 6.92069Z" fill="#BBDEFA"/>
</svg>
