<svg width="36" height="36" viewBox="0 0 36 36" fill="none" xmlns="http://www.w3.org/2000/svg">
<g filter="url(#filter0_d_704_4855)">
<path d="M5.38953 11.2098V19.6167C5.38953 20.7986 5.87553 21.8554 7.23506 21.9076C8.14706 21.9427 9.06733 21.9076 9.97983 21.9076H19.2654C20.3212 21.9076 20.3229 20.2669 19.2654 20.2669H8.75175C8.42465 20.2669 7.18947 20.4702 7.03027 20.1074C6.96785 19.9652 7.03027 19.6493 7.03027 19.4995V9.44397C7.03027 8.61205 6.90885 7.67571 7.03027 6.85063C7.08539 6.47602 7.41906 6.5812 7.74753 6.5812H26.9783C27.586 6.5812 28.2537 6.50246 28.8574 6.5812C29.2804 6.63643 29.1455 7.07589 29.1455 7.44424V19.2321C29.1455 19.4719 29.2095 19.8144 29.1455 20.047C29.0585 20.3633 28.7584 20.2669 28.4563 20.2669H26.7794C25.7237 20.2669 25.7219 21.9076 26.7794 21.9076C28.0911 21.9076 30.1749 22.2914 30.6959 20.6705C30.921 19.9702 30.7862 19.0621 30.7862 18.3444V9.16827C30.7862 8.36604 30.8227 7.5542 30.7862 6.75255C30.7298 5.50983 29.7627 4.94045 28.6411 4.94045H12.2426C10.5647 4.94045 8.86441 4.85965 7.18795 4.94045C6.17316 4.98939 5.43849 5.73144 5.38953 6.74344C5.37881 6.965 5.38953 7.18978 5.38953 7.41152V11.2098Z" fill="#1E1B39"/>
<path d="M21.7277 24.889C21.7383 24.8994 21.7485 24.9103 21.7589 24.9209C21.751 24.9124 21.7406 24.9017 21.7275 24.8887L21.7277 24.889Z" fill="#1E1B39"/>
<path d="M22.3378 25.3587C22.3381 25.3588 22.3385 25.3589 22.3388 25.3591C22.3172 25.347 22.301 25.3382 22.29 25.3328C22.3061 25.3412 22.3219 25.3499 22.3378 25.3587Z" fill="#1E1B39"/>
<path d="M30.9108 23.1685H25.9041C25.6336 22.2039 24.9195 21.4179 23.9472 21.0512C22.7759 20.6095 21.3333 20.9926 20.539 21.961C20.2438 22.321 20.0337 22.7343 19.9129 23.1685H5.06004C4.0043 23.1685 4.00255 24.8093 5.06004 24.8093H19.8984C19.9691 25.0749 20.0746 25.3346 20.2216 25.5805C20.909 26.7309 22.2317 27.2764 23.5327 27.0423C24.6988 26.8325 25.5901 25.9108 25.9028 24.8093H30.9108C31.3399 24.8093 31.751 24.4319 31.7312 23.9889C31.7113 23.5444 31.3707 23.1685 30.9108 23.1685ZM24.2635 24.5835C24.2617 24.5869 24.2601 24.5898 24.2579 24.5936C24.1994 24.6992 24.1404 24.8 24.0744 24.901C24.0735 24.9016 24.0731 24.9019 24.0721 24.9025C24.035 24.9299 24.0037 24.9799 23.9714 25.0131C23.9391 25.0462 23.7816 25.1769 23.8078 25.1634C23.7456 25.2068 23.6825 25.2484 23.6163 25.2856C23.5813 25.3052 23.5443 25.3219 23.5095 25.342C23.4998 25.3476 23.4927 25.352 23.4868 25.3558C23.4776 25.3583 23.4668 25.3615 23.4538 25.3655C23.3552 25.3956 23.2588 25.4272 23.1576 25.4483C23.1431 25.4513 23.1251 25.4569 23.1088 25.4625C23.0726 25.4656 23.0333 25.464 23.0011 25.4653C22.8975 25.4695 22.7959 25.4615 22.6928 25.4571C22.6891 25.4562 22.6865 25.4556 22.6825 25.4546C22.6219 25.4407 22.5618 25.4286 22.5019 25.4119C22.4465 25.3965 22.393 25.3769 22.3385 25.3591C22.3442 25.3623 22.3482 25.3644 22.3547 25.3681C22.349 25.3649 22.3432 25.3619 22.3375 25.3588C22.334 25.3577 22.3306 25.3564 22.3271 25.3553C22.2883 25.3428 22.2396 25.3078 22.2898 25.3328C22.2226 25.2976 22.1546 25.2647 22.0901 25.2239C22.0529 25.2003 22.0175 25.172 21.9801 25.1486C21.9763 25.1447 21.9731 25.1413 21.9684 25.1367C21.8977 25.066 21.8287 24.9925 21.7585 24.9211C21.8111 24.9774 21.7612 24.9407 21.7368 24.9034C21.7336 24.8986 21.7305 24.894 21.7273 24.8892C21.7242 24.8861 21.7212 24.8828 21.7181 24.8798C21.7218 24.8834 21.7238 24.8856 21.7271 24.8889C21.6971 24.8436 21.6663 24.7992 21.6383 24.7524C21.6135 24.7109 21.5259 24.5167 21.5358 24.5548C21.5095 24.4816 21.485 24.4079 21.466 24.3323C21.4559 24.2921 21.4483 24.2516 21.4391 24.2112C21.4373 24.2034 21.4358 24.1977 21.4344 24.1919C21.4339 24.1805 21.4332 24.1671 21.4319 24.1489C21.4253 24.0529 21.4245 23.9567 21.4298 23.8606C21.4312 23.8395 21.4327 23.8183 21.4341 23.7972C21.4342 23.796 21.4343 23.7953 21.4344 23.7942C21.4407 23.7614 21.4496 23.7153 21.4517 23.7057C21.4741 23.6051 21.5072 23.5091 21.5384 23.4111C21.5396 23.4074 21.5402 23.4051 21.5413 23.4017C21.5445 23.3963 21.5476 23.3913 21.5517 23.3842C21.5818 23.3319 21.6073 23.2772 21.6383 23.2253C21.668 23.1757 21.8589 22.9446 21.7181 23.098C21.786 23.024 21.8501 22.9495 21.924 22.8811C21.9256 22.8796 21.9348 22.871 21.9465 22.86C21.9463 22.8636 22.0309 22.7927 22.0397 22.7867C22.1347 22.723 22.2348 22.6717 22.336 22.6194C22.3912 22.6009 22.4457 22.5815 22.5019 22.5658C22.5415 22.5548 22.5815 22.5448 22.6217 22.5358C22.6251 22.535 22.6506 22.5302 22.6774 22.525C22.7126 22.5213 22.7707 22.5141 22.7766 22.5138C22.83 22.5109 22.8835 22.51 22.937 22.5107C22.9903 22.5115 23.0433 22.5164 23.0965 22.5182C23.1018 22.5183 23.1053 22.5183 23.1098 22.5185C23.1151 22.5199 23.1201 22.5214 23.1272 22.5231C23.2471 22.5535 23.3638 22.5845 23.4816 22.6222C23.4819 22.6224 23.482 22.6225 23.4822 22.6227C23.5349 22.6633 23.6106 22.6878 23.6684 22.7224C23.7027 22.7429 23.7367 22.7644 23.7699 22.7867C23.7843 22.7964 23.7982 22.8068 23.8123 22.8168C23.8197 22.8231 23.8288 22.8307 23.8412 22.8411C23.9114 22.9115 23.9822 22.9823 24.0526 23.0525C24.0592 23.059 24.0641 23.0637 24.0691 23.0685C24.0705 23.0706 24.0714 23.072 24.0729 23.0744C24.1059 23.1248 24.1403 23.1735 24.1713 23.2253C24.2023 23.2773 24.228 23.3318 24.2579 23.3842C24.262 23.3913 24.2653 23.3967 24.2684 23.4018C24.2694 23.4051 24.2701 23.4074 24.2713 23.4111C24.3092 23.5296 24.3401 23.6459 24.3706 23.7665C24.3735 23.778 24.3779 23.791 24.3824 23.8025C24.3882 23.8645 24.3827 23.9342 24.3834 23.9889C24.3825 24.0531 24.3785 24.1166 24.3755 24.1806C24.3732 24.2318 24.3732 24.2495 24.3742 24.2493C24.3584 24.3198 24.3267 24.398 24.3105 24.4508C24.2967 24.4958 24.28 24.5396 24.2635 24.5835ZM24.3758 24.2414C24.3784 24.222 24.3822 24.1717 24.382 24.1546C24.3856 24.1795 24.3825 24.2095 24.3758 24.2414Z" fill="#1E1B39"/>
<path d="M26.3851 12.3829C23.3347 10.5725 20.2843 8.7622 17.2339 6.95183C16.7965 6.69218 16.359 6.4326 15.9215 6.17295C15.0852 5.67661 14 6.31018 14 7.29005L14 19.7099C14 20.6899 15.0852 21.3234 15.9215 20.827C18.9719 19.0168 22.0223 17.2064 25.0727 15.396C25.5102 15.1364 25.9477 14.8767 26.3851 14.6172C26.8477 14.3426 27.0212 13.9195 26.9975 13.5032C27.0234 13.085 26.8505 12.659 26.3851 12.3829ZM23.2137 13.5C20.9938 14.8175 18.7739 16.1349 16.554 17.4525V9.54755C18.7739 10.8651 20.9938 12.1825 23.2137 13.5Z" fill="#1E1B39"/>
</g>
<defs>
<filter id="filter0_d_704_4855" x="-2" y="0" width="40" height="40" filterUnits="userSpaceOnUse" color-interpolation-filters="sRGB">
<feFlood flood-opacity="0" result="BackgroundImageFix"/>
<feColorMatrix in="SourceAlpha" type="matrix" values="0 0 0 0 0 0 0 0 0 0 0 0 0 0 0 0 0 0 127 0" result="hardAlpha"/>
<feOffset dy="4"/>
<feGaussianBlur stdDeviation="2"/>
<feComposite in2="hardAlpha" operator="out"/>
<feColorMatrix type="matrix" values="0 0 0 0 0 0 0 0 0 0 0 0 0 0 0 0 0 0 0.25 0"/>
<feBlend mode="normal" in2="BackgroundImageFix" result="effect1_dropShadow_704_4855"/>
<feBlend mode="normal" in="SourceGraphic" in2="effect1_dropShadow_704_4855" result="shape"/>
</filter>
</defs>
</svg>
