<?xml version="1.0" standalone="no"?>
<!DOCTYPE svg PUBLIC "-//W3C//DTD SVG 20010904//EN"
 "http://www.w3.org/TR/2001/REC-SVG-20010904/DTD/svg10.dtd">
<svg version="1.0" xmlns="http://www.w3.org/2000/svg"
 width="596.000000pt" height="596.000000pt" viewBox="0 0 596.000000 596.000000"
 preserveAspectRatio="xMidYMid meet">
<metadata>
Created by potrace 1.14, written by Peter Selinger 2001-2017
</metadata>
<g transform="translate(0.000000,596.000000) scale(0.100000,-0.100000)"
fill="#000000" stroke="none">
<path d="M1901 5944 c-58 -25 -84 -98 -56 -158 35 -74 -30 -70 1035 -71 525
-1 969 -4 985 -8 17 -3 48 -9 70 -12 198 -28 454 -144 629 -284 153 -123 298
-296 392 -471 29 -52 100 -218 110 -255 35 -130 55 -221 61 -278 10 -92 11
-2772 0 -2852 -25 -204 -111 -449 -217 -615 -145 -230 -336 -411 -560 -532
-86 -46 -251 -111 -312 -122 -13 -2 -41 -9 -63 -14 -86 -23 -195 -25 -1196
-27 l-1035 -1 -31 -22 c-63 -45 -69 -131 -13 -187 l30 -30 1028 0 c565 0 1061
3 1102 7 146 15 277 47 422 102 67 25 199 86 208 96 3 3 28 19 55 34 131 75
281 204 424 366 44 49 173 244 206 310 15 30 36 71 45 90 56 108 130 379 148
535 9 81 9 2794 0 2870 -31 256 -134 549 -256 734 -23 34 -42 65 -42 67 0 14
-171 216 -231 274 -253 242 -556 392 -909 451 -109 18 -1987 21 -2029 3z"/>
<path d="M590 3059 l0 -1080 613 4 c515 3 622 7 678 20 346 84 523 294 513
607 -6 178 -78 315 -214 407 -49 33 -135 73 -156 73 -28 0 -11 16 45 42 64 31
153 111 194 175 49 77 70 157 71 273 0 85 -4 118 -23 175 -52 151 -168 263
-342 326 -142 52 -221 57 -826 58 l-553 1 0 -1081z m1055 716 c106 -19 194
-88 216 -168 15 -58 9 -158 -14 -206 -26 -56 -86 -105 -155 -126 -47 -15 -106
-19 -349 -22 l-293 -5 0 264 c0 146 2 267 5 270 8 7 544 2 590 -7z m122 -906
c83 -35 117 -65 144 -124 30 -68 32 -183 4 -246 -41 -91 -117 -138 -250 -156
-27 -4 -176 -7 -330 -7 l-280 0 -3 283 -2 283 327 -4 c325 -4 329 -4 390 -29z"/>
<path d="M2515 3947 l1 -192 345 -5 346 -5 -1 -865 c-1 -476 0 -873 2 -882 4
-17 24 -18 242 -18 l238 0 1 863 c0 474 0 872 1 885 l0 22 344 0 343 0 -1 193
-1 192 -930 2 -930 2 0 -192z"/>
</g>
</svg>
